<svg xmlns="http://www.w3.org/2000/svg" width="15" height="18.491" viewBox="0 0 15 18.491">
  <path id="Path_5896" data-name="Path 5896" d="M864.01,3007.391a15.7,15.7,0,0,1,3.34,4.739l.02.04a.519.519,0,0,0,.43.32.435.435,0,0,0,.46-.32,15.587,15.587,0,0,1,1.95-2.891c.91-1,3.33-3.1,3.94-4.4a6.128,6.128,0,0,0,.85-3.12,7.022,7.022,0,0,0-7.2-6.76,6.568,6.568,0,0,0-6.8,6.38,6.4,6.4,0,0,0,1.01,3.43A12.086,12.086,0,0,0,864.01,3007.391Zm3.79-9.251a3.655,3.655,0,0,1,3.71,3.53,3.439,3.439,0,0,1-3.71,3.33,3.671,3.671,0,0,1-3.6-3.529A3.427,3.427,0,0,1,867.8,2998.14Z" transform="translate(-860.5 -2994.5)" fill="#02a645" stroke="rgba(0,0,0,0)" stroke-width="1" fill-rule="evenodd"/>
</svg>
