<svg id="Background" xmlns="http://www.w3.org/2000/svg" width="61.046" height="29.629" viewBox="0 0 61.046 29.629">
  <g id="Group_2036" data-name="Group 2036">
    <g id="Group_2035" data-name="Group 2035">
      <path id="Path_2945" data-name="Path 2945" d="M21.14,25.428v1.717h-1.1V25.428Zm-18.935,0v3.16H1.124v-3.16H2.2Zm21.608-1.082v4.263h1.781a.5.5,0,0,1,.4.381v.679H23.6a.961.961,0,0,1-.849-1.018V24.345h1.061Zm-2.545,0a.94.94,0,0,1,.933.827v4.5H21.162V28.226H20.038v1.443h-1.06V25.194a.925.925,0,0,0,.042-.213c.042-.4.572-.657.869-.635h1.378Zm-2.841,0v1.06H17.345v4.262H16.264V25.406H15.182v-1.06Zm-3.8,0v1.06H13.55v3.2h1.081v1.06H11.408v-1.06h1.06v-3.2h-1.06v-1.06Zm-3.774,0v1.06H8.673v3.2H9.8V27.166h1.06v2.5H8.46a.949.949,0,0,1-.848-.891V25.236a.354.354,0,0,0,.021-.148.907.907,0,0,1,.911-.742h2.312Zm-3.8,0v1.06H5.979v3.2H7.061v1.06H3.817v-1.06H4.9v-3.2H3.817v-1.06Zm-4.728,0a.971.971,0,0,1,.954,1.06v3.181a.99.99,0,0,1-.911,1.081H.043V24.345h2.29ZM60.791.21c.021.021.063.021.063.085V3.285a1.153,1.153,0,0,1-1.081,1.039H56.912c-.021-.021-.063-.021-.106-.063V1.1A1.123,1.123,0,0,1,57.76.21h3.032ZM6.191.1C6.234.1,6.4.146,6.4.231V5.087a.517.517,0,0,0-.042.169c0,.552-.912,1.338-1.421,1.338H.128C.085,6.573,0,6.488,0,6.445V1.757a.707.707,0,0,0,.021-.211A1.814,1.814,0,0,1,1.441.125.737.737,0,0,0,1.654.1H6.191Z" transform="translate(0 -0.041)" fill="#ff660a" fill-rule="evenodd"/>
      <path id="Path_2946" data-name="Path 2946" d="M55.073,13.149v2.735c-.021.064-.255.445-.424.445H50.79V13.595a.583.583,0,0,1,.509-.445h3.774Zm-48.642,8.4H.07V7.274L4.84,7.3a2.7,2.7,0,0,0,1.59-.7V21.549ZM36.879,5.408V16.14H32.6V5.578c.021-.106.169-.169.275-.169h4.008ZM56.62,0a1.859,1.859,0,0,0-.53,1.145V4.22A.922.922,0,0,0,56.854,5h3.054a2.051,2.051,0,0,0,1.165-.53l-.021,17.074H49.029c-.212-.021-.424-.086-.637-.107A4.873,4.873,0,0,1,45,18.939c-.063-.17-.17-.382-.212-.53-.063-.276-.17-.786-.17-.827V11.411c.042-.275.107-.594.17-.869.445-1.761,2.523-2.461,3.8-2.461H54.67V5.387H45.912V0ZM43.262,0V25.239c-.021.275-.085.53-.107.784a7.145,7.145,0,0,1-.233.849c-.635,1.823-2.692,2.524-4.029,2.673-.233.021-.7.085-.763.085H27.381V24.242h9.5V21.549H29.9c-1.1-.128-2.715-.234-3.394-1.8a3.656,3.656,0,0,1-.212-.679,7.779,7.779,0,0,1-.106-.891V3.966c.021-.191.042-.4.063-.594A4.1,4.1,0,0,1,28.481.381c.107-.041.233-.106.361-.148A3.623,3.623,0,0,1,29.5.064,4.775,4.775,0,0,1,30.073,0ZM20.553,0a4.246,4.246,0,0,1,4.3,4.241V21.549H18.475V5.6c-.043-.043-.148-.212-.234-.212H14.149V21.549H7.788V0Z" transform="translate(-0.027)" fill="#fff" fill-rule="evenodd"/>
    </g>
  </g>
</svg>
