<?xml version="1.0" encoding="UTF-8"?>
<!DOCTYPE svg PUBLIC "-//W3C//DTD SVG 1.0//EN" "http://www.w3.org/TR/2001/REC-SVG-20010904/DTD/svg10.dtd">
<!-- Creator: CorelDRAW -->
<svg xmlns="http://www.w3.org/2000/svg" xml:space="preserve" width="11.3733mm" height="21.8915mm" version="1.0" style="shape-rendering:geometricPrecision; text-rendering:geometricPrecision; image-rendering:optimizeQuality; fill-rule:evenodd; clip-rule:evenodd"
viewBox="0 0 28.39 54.65"
 xmlns:xlink="http://www.w3.org/1999/xlink"
 xmlns:xodm="http://www.corel.com/coreldraw/odm/2003">
 <defs>
  <style type="text/css">
   <![CDATA[
    .fil0 {fill:white}
   ]]>
  </style>
 </defs>
 <g id="Camada_x0020_1">
  <metadata id="CorelCorpID_0Corel-Layer"/>
  <path class="fil0" d="M8.33 14.3l0 5.66 -8.33 0 0 9.82 8.33 0 0 24.87 10.14 0 0 -24.87 8.33 0 1.28 -9.82 -9.61 0 0 -6.41c0,-4.09 2.35,-4.48 5.87,-4.48l4.06 0 0 -8.75c-1.01,0 -1.94,-0.21 -2.88,-0.22 -1.53,-0.01 -2.9,-0.09 -4.17,-0.1l-0.81 0c-2.92,0.04 -5.44,0.55 -8.55,3.13 -1.04,0.86 -2.02,2.63 -2.59,3.92 -0.89,2.01 -1.07,4.74 -1.07,7.26z"/>
 </g>
</svg>
