<?xml version="1.0" encoding="UTF-8"?>
<!DOCTYPE svg PUBLIC "-//W3C//DTD SVG 1.0//EN" "http://www.w3.org/TR/2001/REC-SVG-20010904/DTD/svg10.dtd">
<!-- Creator: CorelDRAW -->
<svg xmlns="http://www.w3.org/2000/svg" xml:space="preserve" width="31.7167mm" height="31.7167mm" version="1.0" style="shape-rendering:geometricPrecision; text-rendering:geometricPrecision; image-rendering:optimizeQuality; fill-rule:evenodd; clip-rule:evenodd"
viewBox="0 0 151.35 151.35"
 xmlns:xlink="http://www.w3.org/1999/xlink"
 xmlns:xodm="http://www.corel.com/coreldraw/odm/2003">
 <defs>
  <style type="text/css">
   <![CDATA[
    .fil0 {fill:white}
   ]]>
  </style>
 </defs>
 <g id="Camada_x0020_1">
  <metadata id="CorelCorpID_0Corel-Layer"/>
  <g id="_2633455366960">
   <path class="fil0" d="M26.88 75.68c0,-26.86 21.99,-48.8 48.8,-48.8 26.81,0 48.8,21.94 48.8,48.8 0,26.86 -21.94,48.8 -48.8,48.8 -26.87,0 -48.8,-21.92 -48.8,-48.8zm88.41 -49.86c0,-13.79 20.51,-14.64 20.51,0.35 0,7.07 -10.23,13.26 -17.25,6.64 -1.39,-1.31 -3.26,-4.49 -3.26,-7zm-115.28 10.26l0 79.21c0,8.79 2.37,17.46 7.87,23.6 2.63,2.94 3.37,3.92 6.98,6.46 5.87,4.13 13.13,6.01 21.22,6.01l79.21 0c8.79,0 17.46,-2.37 23.6,-7.87 4.29,-3.84 7.39,-7.22 9.69,-12.94 1.76,-4.38 2.77,-9.01 2.77,-15.26l0 -79.21c0,-8.79 -2.37,-17.46 -7.87,-23.6 -0.87,-0.97 -1.21,-1.6 -2.11,-2.49 -0.88,-0.88 -1.39,-1.11 -2.31,-1.93 -6.31,-5.64 -14.68,-8.04 -23.78,-8.04l-79.21 0c-10.1,0 -19.33,3.21 -26.09,9.98 -0.88,0.88 -1.11,1.39 -1.93,2.31 -0.78,0.87 -1.4,1.66 -2.03,2.56 -4.13,5.87 -6.01,13.13 -6.01,21.22z"/>
   <path class="fil0" d="M74.67 35.81c-0.81,0.2 -3.26,-0.04 -4.48,0.12 -0.94,0.13 -3.12,0.61 -4.22,0.89 -4.76,1.22 -9.91,3.86 -13.8,6.65 -12.25,8.77 -18.95,26.3 -14.82,42.44 3.79,14.85 16.37,26.35 31.55,29.27 13.2,2.53 24.21,-1.46 34.03,-9.7 2.98,-2.5 4.54,-4.22 6.9,-7.92 3.95,-6.19 7.57,-16.68 6.62,-23.77 -1.82,-13.58 -6.57,-24.21 -18.37,-31.74 -6.16,-3.93 -14.01,-6.53 -21.46,-6.69 -2.53,-0.05 -1.74,0.4 -1.95,0.46z"/>
  </g>
 </g>
</svg>
