<?xml version="1.0" encoding="UTF-8"?>
<!DOCTYPE svg PUBLIC "-//W3C//DTD SVG 1.0//EN" "http://www.w3.org/TR/2001/REC-SVG-20010904/DTD/svg10.dtd">
<!-- Creator: CorelDRAW -->
<svg xmlns="http://www.w3.org/2000/svg" xml:space="preserve" width="29.5663mm" height="20.7315mm" version="1.0" style="shape-rendering:geometricPrecision; text-rendering:geometricPrecision; image-rendering:optimizeQuality; fill-rule:evenodd; clip-rule:evenodd"
viewBox="0 0 120.75 84.67"
 xmlns:xlink="http://www.w3.org/1999/xlink"
 xmlns:xodm="http://www.corel.com/coreldraw/odm/2003">
 <defs>
  <style type="text/css">
   <![CDATA[
    .fil1 {fill:none}
    .fil0 {fill:white}
   ]]>
  </style>
 </defs>
 <g id="Camada_x0020_1">
  <metadata id="CorelCorpID_0Corel-Layer"/>
  <g id="_2633245663376">
   <path class="fil0" d="M48.34 24.24l27.48 15.74c1.16,0.66 2.93,1.59 3.87,2.34l-31.35 17.98 -0 -36.06zm72.41 11.98l0 9.65c-0.11,5.08 -0.37,10.07 -0.73,14.72 -0.42,5.53 -1.41,12.92 -4.88,16.82 -5.23,5.88 -11.42,5.32 -18.89,6.11l-17.96 0.91c-2.04,-0.01 -4.09,-0 -6.14,-0 -2.31,-0 -3.7,0.24 -5.9,0.24l-30.67 -0.46c-1.23,-0.04 -1.61,-0.26 -3.05,-0.25l-11.54 -0.72c-5.87,-0.49 -11.67,-1.24 -15.56,-6.14 -2.12,-2.68 -2.91,-4.51 -3.67,-8.6 -0.94,-5.09 -1.14,-9.17 -1.54,-14.03 -0.08,-0.98 0.04,-2.07 -0.01,-3.05 -0.05,-0.97 -0.21,-1.36 -0.24,-2.38l0 -9.88c0,-8.05 0.4,-24.25 4.48,-30.43 4.15,-6.29 9.68,-6.57 15.97,-7.37l8.08 -0.65c1.09,0 1.7,0.02 2.7,-0.13l41.17 -0.57c2.21,-0 3.45,0.24 5.66,0.24 1.89,-0 3.99,-0.13 5.76,0.14l10.98 0.58c3.9,0.03 12.02,1.06 14.93,2.28 5.85,2.46 8.39,7.62 9.39,13.72 0.97,5.94 1.47,12.55 1.62,19.27z"/>
   <path class="fil1" d="M48.34 60.31l31.35 -17.98c-0.95,-0.75 -2.71,-1.68 -3.87,-2.34l-27.48 -15.74 0 36.06z"/>
  </g>
 </g>
</svg>
