<svg xmlns="http://www.w3.org/2000/svg" width="60.609" height="29.417" viewBox="0 0 60.609 29.417"><defs><style>.a{fill:#ff660a;}.a,.b{fill-rule:evenodd;}.b{fill:#fff;}</style></defs><path class="a" d="M20.989,25.247v1.7H19.9v-1.7Zm-18.8,0v3.138H1.116V25.247H2.189Zm21.453-1.074V28.4h1.769a.494.494,0,0,1,.4.378v.674H23.432a.954.954,0,0,1-.842-1.01V24.172h1.053Zm-2.527,0a.933.933,0,0,1,.926.821v4.464H21.01V28.025H19.9v1.432H18.842V25.014a.918.918,0,0,0,.042-.212c.041-.4.568-.652.863-.631h1.369Zm-2.821,0v1.053H17.221v4.232H16.148V25.225H15.074V24.173Zm-3.769,0v1.053H13.453V28.4h1.073v1.052h-3.2V28.4h1.053v-3.18H11.327V24.173Zm-3.747,0v1.053H8.611V28.4H9.726V26.973h1.053v2.485H8.4a.943.943,0,0,1-.842-.884V25.056a.351.351,0,0,0,.021-.147.9.9,0,0,1,.9-.737h2.3Zm-3.769,0v1.053H5.937V28.4H7.01v1.052H3.79V28.4H4.863v-3.18H3.79V24.173Zm-4.694,0a.964.964,0,0,1,.947,1.053v3.158a.983.983,0,0,1-.9,1.073H.042V24.172H2.316ZM60.357.209c.021.021.063.021.063.084V3.262a1.145,1.145,0,0,1-1.073,1.032H56.5c-.021-.021-.063-.021-.105-.063V1.093a1.115,1.115,0,0,1,.947-.884h3.01ZM6.147.1c.042,0,.212.041.212.126V5.052a.513.513,0,0,0-.042.168c0,.548-.906,1.328-1.411,1.328H.127C.085,6.527,0,6.443,0,6.4V1.745a.7.7,0,0,0,.021-.21A1.8,1.8,0,0,1,1.431.125.732.732,0,0,0,1.642.1H6.147Z" transform="translate(0 -0.041)"/><path class="b" d="M54.68,13.055v2.716c-.021.064-.253.442-.421.442H50.427V13.5a.579.579,0,0,1,.505-.442H54.68ZM6.386,21.395H.07V7.222l4.736.021a2.68,2.68,0,0,0,1.579-.7V21.395ZM36.616,5.369V16.025H32.364V5.538c.021-.1.168-.168.273-.168h3.979ZM56.216,0a1.846,1.846,0,0,0-.526,1.137V4.19a.915.915,0,0,0,.758.779H59.48a2.037,2.037,0,0,0,1.157-.526l-.021,16.952H48.679c-.21-.021-.421-.085-.632-.106A4.839,4.839,0,0,1,44.679,18.8c-.063-.169-.169-.379-.21-.526-.063-.274-.169-.78-.169-.821V11.329c.042-.273.106-.59.169-.863.442-1.749,2.5-2.443,3.769-2.443H54.28V5.348h-8.7V0ZM42.954,0V25.058c-.021.273-.085.526-.106.779a7.1,7.1,0,0,1-.232.842c-.631,1.81-2.673,2.506-4,2.653-.232.021-.695.084-.758.084H27.186V24.069h9.431V21.4H29.69c-1.1-.127-2.7-.232-3.369-1.79a3.63,3.63,0,0,1-.21-.674,7.724,7.724,0,0,1-.105-.885V3.937c.021-.19.042-.4.063-.59A4.07,4.07,0,0,1,28.278.378c.106-.041.232-.1.358-.147a3.6,3.6,0,0,1,.652-.168A4.741,4.741,0,0,1,29.859,0ZM20.407,0A4.216,4.216,0,0,1,24.68,4.211V21.395H18.344V5.559c-.042-.042-.147-.211-.232-.211H14.048V21.395H7.733V0Z" transform="translate(-0.028)"/></svg>