<svg xmlns="http://www.w3.org/2000/svg" width="34.31" height="34.31" viewBox="0 0 34.31 34.31">
  <g id="Group_3597" data-name="Group 3597" transform="translate(1.5 1.5)">
    <ellipse id="Ellipse_138" data-name="Ellipse 138" cx="15.655" cy="15.655" rx="15.655" ry="15.655" fill="none" stroke="#fff" stroke-width="3"/>
    <g id="Group_3591" data-name="Group 3591" transform="translate(7.207 7.207)">
      <rect id="Rectangle_2555" data-name="Rectangle 2555" width="6.089" height="1.601" transform="translate(3.136 5.379)" fill="#fff"/>
      <path id="Path_5932" data-name="Path 5932" d="M225.149-219.9a6.366,6.366,0,0,0,1.352-3.921,6.413,6.413,0,0,0-6.406-6.406,6.413,6.413,0,0,0-6.406,6.406,6.413,6.413,0,0,0,6.406,6.406,6.369,6.369,0,0,0,3.921-1.352l5.281,5.281,1.132-1.133Zm-5.054.883a4.81,4.81,0,0,1-4.8-4.8,4.81,4.81,0,0,1,4.8-4.8,4.81,4.81,0,0,1,4.8,4.8A4.81,4.81,0,0,1,220.1-219.019Z" transform="translate(-213.69 230.229)" fill="#fff"/>
    </g>
  </g>
</svg>
