<svg xmlns="http://www.w3.org/2000/svg" width="34.31" height="34.31" viewBox="0 0 34.31 34.31">
  <g id="Group_3602" data-name="Group 3602" transform="translate(1.5 1.5)">
    <ellipse id="Ellipse_134" data-name="Ellipse 134" cx="15.655" cy="15.655" rx="15.655" ry="15.655" fill="none" stroke="#fff" stroke-width="3"/>
    <path id="Path_5929" data-name="Path 5929" d="M559.94-244.229h0l.073,0Z" transform="translate(-544.192 259.443)" fill="#fff"/>
    <path id="Path_5922" data-name="Path 5922" d="M554.99-219.629a5.844,5.844,0,0,1,.264-1.835,4.7,4.7,0,0,1,1-1.495l1.281-1.318a2.953,2.953,0,0,0,.822-1.991,2.272,2.272,0,0,0-.538-1.6,2.029,2.029,0,0,0-1.565-.581,2.354,2.354,0,0,0-1.6.528,1.786,1.786,0,0,0-.608,1.418h-1.809a3.293,3.293,0,0,1,1.129-2.557,4.222,4.222,0,0,1,2.889-.973,3.988,3.988,0,0,1,2.879.991,3.592,3.592,0,0,1,1.031,2.719,4.912,4.912,0,0,1-1.584,3.368l-1.068,1.054a3.284,3.284,0,0,0-.712,2.275Zm-.078,3.107a1.078,1.078,0,0,1,.267-.747,1.015,1.015,0,0,1,.8-.3,1.028,1.028,0,0,1,.8.3,1.068,1.068,0,0,1,.274.747,1.031,1.031,0,0,1-.273.733,1.048,1.048,0,0,1-.8.291,1.03,1.03,0,0,1-.8-.291A1.043,1.043,0,0,1,554.913-216.522Z" transform="translate(-540.221 238.317)" fill="#fff"/>
  </g>
</svg>
