<svg xmlns="http://www.w3.org/2000/svg" width="34.31" height="34.31" viewBox="0 0 34.31 34.31">
  <g id="Group_3596" data-name="Group 3596" transform="translate(1.5 1.5)">
    <ellipse id="Ellipse_139" data-name="Ellipse 139" cx="15.655" cy="15.655" rx="15.655" ry="15.655" fill="none" stroke="#fff" stroke-width="3"/>
    <g id="Group_3590" data-name="Group 3590" transform="translate(7.74 7.391)">
      <path id="Path_5930" data-name="Path 5930" d="M145.409-224.355h-1.6v2.244h-2.244v1.6h2.244v2.244h1.6v-2.244h2.244v-1.6h-2.244Z" transform="translate(-138.428 227.491)" fill="#fff"/>
      <path id="Path_5931" data-name="Path 5931" d="M147.149-219.9a6.366,6.366,0,0,0,1.352-3.921,6.413,6.413,0,0,0-6.406-6.406,6.413,6.413,0,0,0-6.406,6.406,6.413,6.413,0,0,0,6.406,6.406,6.369,6.369,0,0,0,3.921-1.352l5.281,5.281,1.132-1.133Zm-5.054.883a4.81,4.81,0,0,1-4.8-4.8,4.81,4.81,0,0,1,4.8-4.8,4.81,4.81,0,0,1,4.8,4.8A4.81,4.81,0,0,1,142.1-219.019Z" transform="translate(-135.69 230.229)" fill="#fff"/>
    </g>
  </g>
</svg>
