<svg xmlns="http://www.w3.org/2000/svg" width="34.31" height="34.31" viewBox="0 0 34.31 34.31">
  <g id="Group_3601" data-name="Group 3601" transform="translate(1.5 1.5)">
    <ellipse id="Ellipse_135" data-name="Ellipse 135" cx="15.655" cy="15.655" rx="15.655" ry="15.655" fill="none" stroke="#fff" stroke-width="3"/>
    <g id="libras" transform="translate(4.537 8.808)">
      <g id="Group_601" data-name="Group 601">
        <path id="Path_1039" data-name="Path 1039" d="M500.521-223.779c-.348.018-.7.038-1.045.053-.471.019-.943.046-1.413.046a.809.809,0,0,1-.854-.653.7.7,0,0,1,.392-.829,3.107,3.107,0,0,1,.688-.21c1.471-.264,2.95-.486,4.414-.781a4,4,0,0,1,4.7,3.161,3.974,3.974,0,0,1,.065.495,3.05,3.05,0,0,1-.9,2.414q-2.669,2.678-5.347,5.347c-.089.089-.188.214-.3.226a.824.824,0,0,1-.567-.053.726.726,0,0,1-.19-.567,1.031,1.031,0,0,1,.32-.508c.9-.908,1.806-1.8,2.7-2.718.085-.088.156-.327.107-.385-.145-.169-.295-.043-.427.09q-1.729,1.742-3.466,3.47a1.456,1.456,0,0,1-.35.273.707.707,0,0,1-.854-.158.739.739,0,0,1-.059-.871,1.262,1.262,0,0,1,.178-.209q1.841-1.843,3.683-3.683c.11-.109.267-.214.094-.4-.194-.207-.309-.022-.422.091q-1.969,1.959-3.931,3.93a3.184,3.184,0,0,1-.25.238.717.717,0,0,1-.973-.02.7.7,0,0,1-.046-.97c.2-.248.436-.472.666-.7,1.171-1.174,2.349-2.34,3.512-3.52.135-.136.451-.3.234-.521-.245-.253-.4.083-.541.225-1.2,1.189-2.4,2.386-3.6,3.581-.049.049-.1.1-.145.145a.657.657,0,0,1-.927.069.658.658,0,0,1-.069-.928.661.661,0,0,1,.073-.072c.173-.185.357-.363.534-.539l4.053-4.054a4.447,4.447,0,0,0,.32-.387Z" transform="translate(-486.069 226.895)" fill="#fff"/>
        <path id="Path_1040" data-name="Path 1040" d="M487.134-219.6c.129-.139.263-.27.392-.4l.155-.154.9-.9.059-.059q.087-.305.173-.611a3.115,3.115,0,0,0,.107-.711.7.7,0,0,0-.577-.713.809.809,0,0,0-.958.488c-.2.424-.385.86-.573,1.292-.139.32-.272.641-.407.965h-.129a4.63,4.63,0,0,1-.21-.456q-.95-2.7-1.893-5.41c-.083-.239-.16-.48-.253-.716a.658.658,0,0,0-.8-.474.657.657,0,0,0-.473.8.672.672,0,0,0,.035.1c.02.066.045.131.067.2.557,1.6,1.118,3.193,1.669,4.795.065.19.3.475-.032.587-.3.1-.3-.256-.367-.436-.557-1.561-1.1-3.128-1.647-4.692-.107-.3-.208-.611-.342-.9a.7.7,0,0,0-.894-.38.717.717,0,0,0-.441.871,3.23,3.23,0,0,0,.107.328l1.835,5.248c.053.151.17.334-.1.42-.242.077-.267-.111-.317-.257q-.862-2.459-1.722-4.919a1.279,1.279,0,0,0-.111-.252.739.739,0,0,0-.809-.325.706.706,0,0,0-.512.7,1.453,1.453,0,0,0,.095.436q.8,2.316,1.62,4.628c.062.178.113.363-.107.427-.073.02-.259-.145-.3-.263-.436-1.2-.846-2.41-1.276-3.611a1.031,1.031,0,0,0-.32-.508.726.726,0,0,0-.593-.073c-.145.062-.235.306-.294.488a.664.664,0,0,0,.073.363q1.244,3.57,2.5,7.138a3.046,3.046,0,0,0,1.782,1.861,4,4,0,0,0,5.2-2.231,4.052,4.052,0,0,0,.156-.474c.022-.085.044-.169.066-.253a1.1,1.1,0,0,1-.564-.3,1.161,1.161,0,0,1,.026-1.641h0Z" transform="translate(-477.888 227.477)" fill="#fff"/>
      </g>
    </g>
  </g>
</svg>
