<svg xmlns="http://www.w3.org/2000/svg" width="34.31" height="34.31" viewBox="0 0 34.31 34.31">
  <g id="Group_3600" data-name="Group 3600" transform="translate(1.5 1.5)">
    <ellipse id="Ellipse_136" data-name="Ellipse 136" cx="15.655" cy="15.655" rx="15.655" ry="15.655" fill="none" stroke="#fff" stroke-width="3"/>
    <g id="Group_3592" data-name="Group 3592" transform="translate(7.206 7.207)">
      <path id="Path_5933" data-name="Path 5933" d="M425.459-205.284h0a.363.363,0,0,0-.172-.043.366.366,0,0,0-.106.016.358.358,0,0,0-.215.175.362.362,0,0,0-.028.278.36.36,0,0,0,.176.215.359.359,0,0,0,.277.028.362.362,0,0,0,.215-.176.368.368,0,0,0,.043-.171A.36.36,0,0,0,425.459-205.284Z" transform="translate(-420.61 219.206)" fill="#fff"/>
      <path id="Path_5934" data-name="Path 5934" d="M438.8-204.613a.362.362,0,0,0,.278-.031.365.365,0,0,0,.19-.32.36.36,0,0,0-.045-.175v0a.36.36,0,0,0-.218-.175.357.357,0,0,0-.1-.014.362.362,0,0,0-.175.045.367.367,0,0,0-.176.219.364.364,0,0,0,.032.278A.363.363,0,0,0,438.8-204.613Z" transform="translate(-426.957 219.207)" fill="#fff"/>
      <path id="Path_5935" data-name="Path 5935" d="M419.952-219.629a.378.378,0,0,0-.081-.009.363.363,0,0,0-.194.057.361.361,0,0,0-.16.227.361.361,0,0,0,.047.275.36.36,0,0,0,.227.161.362.362,0,0,0,.275-.047.36.36,0,0,0,.16-.227.368.368,0,0,0,.01-.081A.365.365,0,0,0,419.952-219.629Z" transform="translate(-418.086 225.877)" fill="#fff"/>
      <path id="Path_5936" data-name="Path 5936" d="M431.2-221.383a1.285,1.285,0,0,0,1.284-1.284,1.285,1.285,0,0,0-1.284-1.284,1.285,1.285,0,0,0-1.283,1.284A1.285,1.285,0,0,0,431.2-221.383Z" transform="translate(-422.938 227.888)" fill="#fff"/>
      <path id="Path_5937" data-name="Path 5937" d="M444.683-219.638a.366.366,0,0,0-.222.075.367.367,0,0,0-.14.242.362.362,0,0,0,.072.27.366.366,0,0,0,.29.144.372.372,0,0,0,.365-.4.371.371,0,0,0-.074-.19A.366.366,0,0,0,444.683-219.638Z" transform="translate(-429.652 225.877)" fill="#fff"/>
      <path id="Path_5938" data-name="Path 5938" d="M425.3-231.326a8.454,8.454,0,0,0-8.454,8.454,8.454,8.454,0,0,0,8.454,8.454,8.454,8.454,0,0,0,8.453-8.454A8.454,8.454,0,0,0,425.3-231.326Zm-.192,2.978a2.245,2.245,0,0,1,2.243,2.243,2.245,2.245,0,0,1-2.243,2.242,2.245,2.245,0,0,1-2.242-2.242A2.245,2.245,0,0,1,425.105-228.348Zm6.887,4.944a.789.789,0,0,1-.117.006,1.323,1.323,0,0,1-.784-.266c-.092.05-.181.1-.275.149h0a12.846,12.846,0,0,1-4.9,1.256l2.418,3.67h0l.148.225a1.317,1.317,0,0,1,.684.009,1.318,1.318,0,0,1,.791.632,1.322,1.322,0,0,1,.164.64,1.325,1.325,0,0,1-.684,1.159,1.317,1.317,0,0,1-.637.165,1.337,1.337,0,0,1-.371-.053,1.318,1.318,0,0,1-.791-.633,1.315,1.315,0,0,1-.112-1.007,1.328,1.328,0,0,1,.172-.359l-.165-.251h0l-2.44-3.7-2.411,3.66h0l-.132.2a1.3,1.3,0,0,1,.3.822,1.324,1.324,0,0,1-.158.624,1.313,1.313,0,0,1-.781.639,1.338,1.338,0,0,1-.384.057,1.307,1.307,0,0,1-.623-.159,1.311,1.311,0,0,1-.641-.783,1.317,1.317,0,0,1,.1-1.007,1.314,1.314,0,0,1,.784-.64,1.311,1.311,0,0,1,.576-.038l.161-.244h0l2.393-3.634a12.886,12.886,0,0,1-4.655-1.18l-.005,0c-.1-.048-.191-.1-.287-.149a1.309,1.309,0,0,1-.689.2,1.342,1.342,0,0,1-.294-.033,1.313,1.313,0,0,1-.827-.585,1.312,1.312,0,0,1-.171-1,1.31,1.31,0,0,1,.583-.826,1.319,1.319,0,0,1,1-.172h0a1.32,1.32,0,0,1,1.031,1.288,1.368,1.368,0,0,1-.033.293c0,.019-.013.036-.018.054.041.021.079.043.121.064a11.937,11.937,0,0,0,5.021,1.114h.1a11.674,11.674,0,0,0,5.246-1.179v0c.064-.032.124-.068.186-.1a1.317,1.317,0,0,1-.017-.42,1.316,1.316,0,0,1,.507-.876,1.326,1.326,0,0,1,1.856.248,1.318,1.318,0,0,1,.268.688A1.324,1.324,0,0,1,431.993-223.4Z" transform="translate(-416.844 231.326)" fill="#fff"/>
    </g>
  </g>
</svg>
