<?xml version="1.0" encoding="UTF-8"?>
<!DOCTYPE svg PUBLIC "-//W3C//DTD SVG 1.0//EN" "http://www.w3.org/TR/2001/REC-SVG-20010904/DTD/svg10.dtd">
<!-- Creator: CorelDRAW -->
<svg xmlns="http://www.w3.org/2000/svg" xml:space="preserve" width="15.6694mm" height="15.6694mm" version="1.0" style="shape-rendering:geometricPrecision; text-rendering:geometricPrecision; image-rendering:optimizeQuality; fill-rule:evenodd; clip-rule:evenodd"
viewBox="0 0 22.53 22.53"
 xmlns:xlink="http://www.w3.org/1999/xlink"
 xmlns:xodm="http://www.corel.com/coreldraw/odm/2003">
 <defs>
  <style type="text/css">
   <![CDATA[
    .fil0 {fill:#355070}
   ]]>
  </style>
 </defs>
 <g id="Camada_x0020_1">
  <metadata id="CorelCorpID_0Corel-Layer"/>
  <g id="_3023825279408">
   <g id="_2959666283424">
    <path class="fil0" d="M13.33 18.53l-1.42 -1.4 1.39 -1.41 1.44 0.61c-0.01,0.18 -0.21,0.41 -0.32,0.56 -0.14,0.19 -0.25,0.35 -0.38,0.55 -0.14,0.21 -0.68,0.96 -0.71,1.09l0 0zm9.2 3.26l0 0.29c-0.01,0.23 -0.08,0.46 -0.4,0.46l-8.93 0c-0.53,0 -0.53,-0.88 0,-0.88l8.4 0c0,-0.75 -0.34,-1.75 -0.6,-2.26 -0.96,-1.88 -3.01,-3.33 -5.12,-3.33 0,0.44 -0.16,0.5 -0.58,1.14l-1.18 1.72c-0.35,0.52 -0.39,0.75 -0.79,0.75 -0.36,0 -1.57,-1.56 -2.07,-1.89 -0.24,0.16 -0.76,0.74 -1,0.98 -0.7,0.7 -1.08,1.35 -1.6,0.56 -0.28,-0.42 -1.97,-2.82 -2.03,-3.03l-0.04 -0.23c-1.37,0 -2.96,0.78 -3.9,1.73 -0.98,0.98 -1.77,2.45 -1.77,3.86l8.4 0c0.53,0 0.53,0.88 0,0.88l-8.93 0c-0.22,0 -0.4,-0.18 -0.4,-0.4 0,-2.33 1.02,-4.29 2.77,-5.6 2.58,-1.93 4.97,-1.23 5.6,-1.44 0.14,-0.04 0.61,-0.22 0.61,-0.36 0,-0.99 0.13,-0.58 -0.66,-1.19 -0.54,-0.42 -1.02,-1.01 -1.32,-1.63 -0.06,-0.13 -0.11,-0.27 -0.18,-0.4 -0.58,0 -0.93,0.01 -1.37,-0.13 -1.07,-0.33 -1.84,-1.37 -1.84,-2.51 0,-0.92 0.72,-2.02 1.23,-2.16 0,-1.16 0.13,-1.97 0.48,-2.77 0.49,-1.12 1.14,-1.99 2.12,-2.72 1.23,-0.91 2.45,-1.24 4.08,-1.24 1.8,0 3.26,0.87 4.43,2.03 1.23,1.22 1.73,2.9 1.73,4.7 0.26,0.07 0.71,0.61 0.86,0.85 0.66,1.09 0.39,2.5 -0.57,3.31 -0.73,0.62 -1.34,0.63 -2.28,0.63 -0.07,0.14 -0.11,0.27 -0.19,0.43 -0.35,0.7 -1,1.45 -1.66,1.86 -0.37,0.23 -0.31,0.04 -0.31,0.93 0,0.14 0.49,0.34 0.63,0.38 0.26,0.07 1.68,-0.06 2.82,0.17 1.96,0.39 3.69,1.7 4.62,3.38 0.49,0.89 0.89,2.02 0.89,3.11l-0 0zm-14.74 -5.46l1.45 -0.62 1.37 1.4 -1.41 1.43c-0.11,-0.2 -0.23,-0.36 -0.35,-0.55 -0.13,-0.19 -0.23,-0.37 -0.37,-0.55l-0.53 -0.79c-0.08,-0.12 -0.14,-0.16 -0.16,-0.33l-0 -0zm2.11 -1.94c0.23,0.05 0.38,0.1 0.65,0.15 0.55,0.09 0.88,0.09 1.44,0 0.26,-0.04 0.42,-0.09 0.65,-0.15 0,0.89 0.12,0.61 -0.5,1.22 -0.22,0.22 -0.65,0.7 -0.87,0.85l-1.29 -1.26c-0.13,-0.16 -0.07,-0.46 -0.07,-0.81l0 0zm0.66 -2.9c0,-0.51 0.58,-0.44 0.92,-0.44 0.7,0 0.7,0.88 0,0.88 -0.36,0 -0.92,0.07 -0.92,-0.44l0 -0zm-0.92 0c0,0.3 0.18,0.68 0.37,0.91 0.43,0.51 1.05,0.41 1.65,0.41 0.37,0 0.6,-0.14 0.81,-0.33 0.24,-0.22 0.24,-0.28 0.38,-0.55l1.63 0c-0.76,1.43 -3.03,2.24 -4.74,1.44 -0.7,-0.33 -1.1,-0.62 -1.55,-1.22 -0.39,-0.52 -0.75,-1.32 -0.75,-2.02l0 -2.46c0.23,0 0.41,0.07 0.62,0.08 0.93,0.08 1.91,0.06 2.79,-0.28 0.31,-0.12 0.5,-0.2 0.77,-0.33 1.21,-0.61 0.27,-0.49 1.97,0.23 0.36,0.15 1.07,0.35 1.51,0.38l-0.02 2.58c-0.05,0.29 -0.1,0.48 -0.16,0.72l-2.07 0c-0.51,-0.96 -0.88,-0.88 -1.94,-0.88 -0.75,0 -1.28,0.72 -1.28,1.32l0 0zm-5.1 -2.46c0,-1.03 0.7,-1.8 1.58,-1.8l0.4 0 0 3.39 -0.4 0c-0.8,0 -1.58,-0.78 -1.58,-1.58l0 -0zm11.88 1.58l-0.4 0 0 -3.39 0.4 0c0.86,0 1.58,0.78 1.58,1.72 0,0.87 -0.73,1.67 -1.58,1.67l0 0zm-7.22 -3.74c-0.55,0 -1.03,0.02 -1.56,-0.11 -0.23,-0.05 -0.2,-0.01 -0.2,-0.42 0,-1.39 1,-2.81 2.28,-3.36 2.74,-1.18 5.38,1.01 5.38,3.36l0 0.48c-0.57,-0.01 -1.36,-0.36 -1.81,-0.61 -1.03,-0.59 -0.71,-0.75 -1.6,-0.15 -0.61,0.41 -1.7,0.81 -2.49,0.81l0 -0zm-2.68 -0.57c-0.13,0 -0.27,-0.01 -0.4,0 -0.2,0.01 -0.16,0.04 -0.35,0.04 0,-2.18 1.31,-4.13 3.29,-4.99 2.04,-0.88 4.52,-0.45 6.01,1.06 0.25,0.25 0.41,0.41 0.62,0.7 0.68,0.9 1.08,1.99 1.08,3.23 -0.21,-0 -0.27,-0.04 -0.75,-0.04 -0.14,-0.6 -0.05,-0.99 -0.45,-1.79 -0.76,-1.52 -2.26,-2.74 -4.08,-2.74 -1.5,0 -2.54,0.37 -3.57,1.4 -0.7,0.7 -1.18,1.61 -1.34,2.62 -0.03,0.21 -0.02,0.33 -0.06,0.51l-0 0z"/>
    <path class="fil0" d="M10.82 22.05c0,0.28 0.16,0.44 0.35,0.48l0.18 0c0.19,-0.04 0.35,-0.2 0.35,-0.48 0,-0.53 -0.88,-0.53 -0.88,0l0 0z"/>
   </g>
  </g>
 </g>
</svg>
