<svg xmlns="http://www.w3.org/2000/svg" width="41.165" height="46.541" viewBox="0 0 41.165 46.541">
  <g id="concursos" transform="translate(1 1)">
    <line id="Line_340" data-name="Line 340" y1="7.556" transform="translate(31.967 29.313)" fill="none" stroke="#355070" stroke-width="2"/>
    <path id="Path_1543" data-name="Path 1543" d="M24,107v22.59H45.971v-4.922h5.3l-4.514,4.1" transform="translate(-19.157 -85.05)" fill="none" stroke="#355070" stroke-width="2"/>
    <line id="Line_341" data-name="Line 341" x1="6.297" transform="translate(20.779 11.233)" fill="none" stroke="#355070" stroke-width="2"/>
    <circle id="Ellipse_33" data-name="Ellipse 33" cx="8.986" cy="8.986" r="8.986" transform="translate(0 2.762)" fill="none" stroke="#355070" stroke-width="2"/>
    <path id="Path_1544" data-name="Path 1544" d="M52.5,118.6l1.546,1.546,3.545-3.545" transform="translate(-41.783 -92.671)" fill="none" stroke="#355070" stroke-width="2"/>
    <path id="Path_1545" data-name="Path 1545" d="M52.5,148.6l1.546,1.546,3.545-3.545" transform="translate(-41.783 -116.488)" fill="none" stroke="#355070" stroke-width="2"/>
    <path id="Path_1546" data-name="Path 1546" d="M52.5,178.6l1.546,1.546,3.545-3.545" transform="translate(-41.783 -140.305)" fill="none" stroke="#355070" stroke-width="2"/>
    <line id="Line_342" data-name="Line 342" x2="5.194" transform="translate(6.389)" fill="none" stroke="#355070" stroke-width="2"/>
    <line id="Line_343" data-name="Line 343" y1="2.432" transform="translate(9.172 0.041)" fill="none" stroke="#355070" stroke-width="2"/>
    <path id="Path_1547" data-name="Path 1547" d="M45,30.7v6.554l3.256-3.236" transform="translate(-35.828 -24.476)" fill="none" stroke="#355070" stroke-width="2"/>
    <g id="Group_1165" data-name="Group 1165" transform="translate(20.631 7.033)">
      <path id="Path_1548" data-name="Path 1548" d="M100.6,62.162l.247,6.7,6.08-2.8L118.572,47.1l-6.307-3.9Z" transform="translate(-100.6 -41.433)" fill="none" stroke="#355070" stroke-width="2"/>
      <path id="Path_1549" data-name="Path 1549" d="M163.427,40.288a3.715,3.715,0,1,0-6.327-3.9" transform="translate(-145.455 -34.625)" fill="none" stroke="#355070" stroke-width="2"/>
      <path id="Path_1550" data-name="Path 1550" d="M100.6,134.6a12.775,12.775,0,0,1,3.5,1.5,13.076,13.076,0,0,1,2.824,2.35" transform="translate(-100.6 -113.995)" fill="none" stroke="#355070" stroke-width="2"/>
      <path id="Path_1551" data-name="Path 1551" d="M101.2,157.8a3.328,3.328,0,0,1,1.092.453,3.365,3.365,0,0,1,.866.742" transform="translate(-101.076 -132.413)" fill="none" stroke="#355070" stroke-width="2"/>
    </g>
    <path id="Path_1552" data-name="Path 1552" d="M129.1,200.2" transform="translate(-102.595 -159.041)" fill="none" stroke="#355070" stroke-width="2"/>
  </g>
</svg>
