<?xml version="1.0" encoding="UTF-8"?>
<!DOCTYPE svg PUBLIC "-//W3C//DTD SVG 1.0//EN" "http://www.w3.org/TR/2001/REC-SVG-20010904/DTD/svg10.dtd">
<!-- Creator: CorelDRAW -->
<svg xmlns="http://www.w3.org/2000/svg" xml:space="preserve" width="11.3948mm" height="10.1951mm" version="1.0" style="shape-rendering:geometricPrecision; text-rendering:geometricPrecision; image-rendering:optimizeQuality; fill-rule:evenodd; clip-rule:evenodd"
viewBox="0 0 10.24 9.16"
 xmlns:xlink="http://www.w3.org/1999/xlink"
 xmlns:xodm="http://www.corel.com/coreldraw/odm/2003">
 <defs>
  <style type="text/css">
   <![CDATA[
    .str0 {stroke:#355070;stroke-width:0.07;stroke-miterlimit:22.9256}
    .fil0 {fill:#355070}
   ]]>
  </style>
 </defs>
 <g id="Camada_x0020_1">
  <metadata id="CorelCorpID_0Corel-Layer"/>
  <g id="_3059484779536">
   <g id="_2458728592576">
    <path class="fil0" d="M1.18 6.07l0.9 0c0.01,0.12 0.09,0.33 0.13,0.45 0.05,0.16 0.09,0.3 0.14,0.46 0.04,0.14 0.09,0.31 0.14,0.46 0.04,0.14 0.1,0.32 0.14,0.46l-0.88 0 -0.56 -1.83 0 -0zm-0.78 -1.14c0,-0.42 -0.06,-0.85 0.18,-1.11 0.09,-0.1 0.29,-0.2 0.47,-0.2l0.96 0 0 2.05 -0.82 0c-0.36,0 -0.61,-0.1 -0.74,-0.4 -0.04,-0.09 -0.06,-0.21 -0.06,-0.34zm-0.4 -0.72l0 0.86c0,0.41 0.31,0.77 0.6,0.9 0.17,0.08 0.13,-0 0.23,0.36l0.55 1.84c0.03,0.07 0.1,0.13 0.19,0.13l1.32 0c0.1,0 0.2,-0.09 0.2,-0.18 0,-0.09 -0.04,-0.18 -0.06,-0.24l-0.36 -1.21c-0.03,-0.11 -0.13,-0.41 -0.14,-0.5 0.06,0.03 0.13,0.04 0.2,0.06l0.64 0.19c0.35,0.1 2.44,0.74 2.55,0.74 0.13,0 0.2,-0.13 0.2,-0.26l0 -1.38c0,-0.32 -0.4,-0.31 -0.42,-0.04l0 1.2c-0.12,-0.06 -3.11,-0.9 -3.27,-0.98l0 -2.15c0.13,-0.01 2.95,-0.88 3.27,-0.96 0,0.25 0,0.49 0,0.74 0,0.41 -0.05,0.56 0.26,0.56 0.09,0 0.16,-0.14 0.16,-0.24l0 -1.3c0,-0.38 -0.41,-0.19 -0.61,-0.14 -1.01,0.28 -2.07,0.63 -3.07,0.91 -0.15,0.04 -0.22,0.08 -0.42,0.08 -0.33,-0 -0.66,0 -1,0 -0.53,-0 -1.02,0.47 -1.02,1l0 0z"/>
    <path class="fil0" d="M6.92 8.59c0,-0.33 -0.03,-0.2 0.33,-0.56 0.09,-0.09 0.27,-0.29 0.36,-0.35 0.07,0.04 0.08,0.07 0.13,0.13l0.6 0.6c0,0 0.01,0.01 0.01,0.01l0.34 0.36c-0.33,0 -0.65,0 -0.98,0 -0.26,0 -0.8,0.09 -0.8,-0.18l0 -0zm2.14 -0.91c0.08,0.05 0.45,0.44 0.57,0.56 0.17,0.17 0.18,0.13 0.18,0.29 0,0.28 -0.25,0.24 -0.48,0.24 -0.09,0 -0.57,-0.58 -0.7,-0.66l0.42 -0.43 0 -0zm-2.14 0.1c0,-1.25 -0.14,-1.31 0.38,-1.31 0.22,-0 0.24,-0.12 0.24,-0.34 0.09,0.06 0.17,0.16 0.25,0.25 0.12,0.12 0.18,0.09 0.4,0.09 0.15,0 1.39,-0.02 1.48,0.02 0.14,0.05 0.14,0.18 0.14,0.36 -0,0.33 0,0.66 0,1l-0.53 -0.52c-0.25,-0.25 -0.29,-0.14 -0.6,0.17 -0.09,0.09 -0.25,0.27 -0.34,0.33 -0.04,-0.05 -0.58,-0.64 -0.72,-0.64 -0.14,0 -0.23,0.14 -0.37,0.28 -0.09,0.09 -0.23,0.25 -0.32,0.31l0 -0zm0.2 -2.13l0 0.42c-0.35,0 -0.62,0.25 -0.62,0.6l0 1.91c0,0.32 0.26,0.6 0.58,0.6l2.59 0c0.26,0 0.54,-0.28 0.54,-0.54l0 -2.03c0,-0.26 -0.26,-0.5 -0.48,-0.53 -0.14,-0.02 -1.22,-0.01 -1.51,-0 -0.13,0 -0.13,0.02 -0.21,-0.05 -0.05,-0.05 -0.08,-0.08 -0.13,-0.13 -0.09,-0.09 -0.16,-0.16 -0.25,-0.25 -0.09,-0.09 -0.17,-0.22 -0.31,-0.22 -0.12,0 -0.2,0.11 -0.2,0.24l0 0z"/>
    <path class="fil0 str0" d="M7.54 3.08c0,-0.21 -0.02,-0.33 -0.22,-0.34 -0.19,-0.01 -0.4,0.02 -0.4,-0.18l0 -1.95c0,-0.13 0.11,-0.18 0.24,-0.18l2.41 0c0.15,0 0.24,0.08 0.24,0.24l0 1.83c0,0.26 -0.2,0.24 -0.46,0.24 -0.18,0 -1.35,-0.01 -1.43,0.01 -0.14,0.04 -0.27,0.25 -0.39,0.33l0 0zm-1.04 -2.45l0 1.91c0,0.35 0.27,0.6 0.62,0.6 0,0.31 -0.06,0.66 0.22,0.66 0.13,0 0.54,-0.47 0.66,-0.59 0.07,-0.08 0.06,-0.07 0.19,-0.06 0.29,0 1.38,0.02 1.53,-0 0.22,-0.04 0.48,-0.27 0.48,-0.53l0 -2.03c0,-0.26 -0.28,-0.54 -0.54,-0.54l-2.59 0c-0.32,0 -0.58,0.28 -0.58,0.6l0 0z"/>
    <path class="fil0" d="M8.16 1.89l0 -0.6 0.34 0.22c0.06,0.04 0.08,0.03 0.12,0.08 -0.04,0.05 -0.04,0.04 -0.1,0.08l-0.35 0.22 0 0zm-0.4 -0.74l0 0.88c0,0.19 0.16,0.32 0.36,0.32 0.13,0 0.2,-0.07 0.29,-0.13 0.31,-0.21 0.69,-0.35 0.69,-0.63 0,-0.27 -0.37,-0.43 -0.67,-0.62 -0.15,-0.1 -0.15,-0.14 -0.36,-0.14 -0.12,0 -0.3,0.13 -0.3,0.32l-0 -0z"/>
    <path class="fil0" d="M5.7 4.66c0,0.07 0.06,0.15 0.13,0.17 0.32,0.14 0.38,-0.39 0.09,-0.39 -0.12,0 -0.22,0.09 -0.22,0.22l0 0z"/>
   </g>
  </g>
 </g>
</svg>
