<?xml version="1.0" encoding="UTF-8"?>
<!DOCTYPE svg PUBLIC "-//W3C//DTD SVG 1.0//EN" "http://www.w3.org/TR/2001/REC-SVG-20010904/DTD/svg10.dtd">
<!-- Creator: CorelDRAW -->
<svg xmlns="http://www.w3.org/2000/svg" xml:space="preserve" width="14.5322mm" height="11.6596mm" version="1.0" style="shape-rendering:geometricPrecision; text-rendering:geometricPrecision; image-rendering:optimizeQuality; fill-rule:evenodd; clip-rule:evenodd"
viewBox="0 0 23.52 18.87"
 xmlns:xlink="http://www.w3.org/1999/xlink"
 xmlns:xodm="http://www.corel.com/coreldraw/odm/2003">
 <defs>
  <style type="text/css">
   <![CDATA[
    .str0 {stroke:#355070;stroke-width:0.86;stroke-linecap:round;stroke-linejoin:round;stroke-miterlimit:22.9256}
    .fil0 {fill:none}
   ]]>
  </style>
 </defs>
 <g id="Camada_x0020_1">
  <metadata id="CorelCorpID_0Corel-Layer"/>
  <g id="_3023837623952">
   <g id="desenvolvimentoRural">
    <path id="Path_964" class="fil0 str0" d="M15 18.44c1.88,-2.31 4.7,-3.66 7.68,-3.66 0.01,0 0.03,0 0.04,0" data-name="Path 964"/>
    <path id="Path_965" class="fil0 str0" d="M12.48 18.39c2.18,-3.55 6.04,-5.71 10.2,-5.71 0.01,0 0.03,0 0.04,0" data-name="Path 965"/>
    <path id="Path_966" class="fil0 str0" d="M9.94 18.18c2.44,-4.78 7.36,-7.8 12.73,-7.8 0.02,0 0.04,0 0.06,0" data-name="Path 966"/>
    <path id="Path_970" class="fil0 str0" d="M1.46 15.88c1.09,-0.4 2.25,-0.6 3.42,-0.6 1.82,0 3.6,0.5 5.15,1.44" data-name="Path 970"/>
    <path id="Path_971" class="fil0 str0" d="M1.4 13.68c1.13,-0.34 2.3,-0.51 3.48,-0.51 2.27,0 4.5,0.64 6.43,1.86" data-name="Path 971"/>
    <path id="Path_972" class="fil0 str0" d="M1.34 11.3c1.15,-0.29 2.35,-0.44 3.54,-0.44 2.96,0 5.85,0.92 8.27,2.62" data-name="Path 972"/>
    <circle id="Ellipse_28" class="fil0 str0" cx="14.81" cy="7.42" r="1.89" data-name="Ellipse 28"/>
    <path id="Path_976" class="fil0 str0" d="M22.83 3.62c0.17,-0.3 0.26,-0.64 0.26,-0.98 -0.02,-1.07 -0.89,-1.93 -1.96,-1.93 -1.07,0 -1.95,0.86 -1.96,1.93 0,0.34 0.09,0.68 0.26,0.98 -0.17,0.3 -0.26,0.64 -0.26,0.98 0,0.34 0.09,0.68 0.26,0.98 -0.17,0.3 -0.26,0.64 -0.26,0.98 0.02,1.07 0.89,1.93 1.96,1.93 1.07,0 1.95,-0.86 1.96,-1.93 -0,-0.34 -0.09,-0.68 -0.26,-0.98 0.17,-0.3 0.26,-0.64 0.26,-0.98 0,-0 0,-0 0,-0.01 0,-0.34 -0.09,-0.68 -0.26,-0.98l0 -0z" data-name="Path 974"/>
    <line id="Line_327" class="fil0 str0" x1="20.49" y1="5.61" x2="20.94" y2= "6.05"  data-name="Line 327"/>
    <line id="Line_328" class="fil0 str0" x1="20.94" y1="6.05" x2="21.8" y2= "5.18"  data-name="Line 328"/>
    <line id="Path_978" class="fil0 str0" x1="20.94" y1="6.12" x2="20.94" y2= "10.11"  data-name="Path 978"/>
    <circle id="Ellipse_29" class="fil0 str0" cx="8.78" cy="5.18" r="2.64" data-name="Ellipse 29"/>
    <line id="Line_330" class="fil0 str0" x1="7.77" y1="4.99" x2="8.46" y2= "5.69"  data-name="Line 330"/>
    <line id="Line_331" class="fil0 str0" x1="8.46" y1="5.69" x2="9.84" y2= "4.31"  data-name="Line 331"/>
    <line id="Line_332" class="fil0 str0" x1="8.46" y1="6.08" x2="8.46" y2= "10.93"  data-name="Line 332"/>
    <g id="Group_595" data-name="Group 595">
     <path id="Path_977" class="fil0 str0" d="M4.62 3.79c0.2,-0.34 0.31,-0.72 0.31,-1.11 0,-1.24 -1.01,-2.25 -2.25,-2.25 -1.24,0 -2.25,1.01 -2.25,2.25 0,0 0,0.01 0,0.01 0,0.39 0.11,0.77 0.31,1.1 -0.2,0.34 -0.31,0.72 -0.31,1.11 0,0 0,0.01 0,0.01 0,0.39 0.11,0.77 0.31,1.1 -0.2,0.34 -0.31,0.72 -0.31,1.11 -0,0 -0,0 -0,0.01 0,1.24 1.01,2.25 2.25,2.25 0,0 0,0 0.01,0 0.01,-0 0.02,0 0.03,0 1.23,0 2.23,-1 2.23,-2.23 0,-0 0,-0 0,-0 0,-0 0,-0.01 0,-0.01 0,-0.39 -0.11,-0.77 -0.31,-1.1 0.2,-0.34 0.31,-0.73 0.31,-1.13 0,-0.4 -0.11,-0.79 -0.31,-1.13l-0 0z" data-name="Path 977"/>
     <line id="Line_333" class="fil0 str0" x1="2.13" y1="5.03" x2="2.51" y2= "5.41"  data-name="Line 333"/>
     <line id="Line_334" class="fil0 str0" x1="2.51" y1="5.41" x2="3.24" y2= "4.67"  data-name="Line 334"/>
     <line id="Line_335" class="fil0 str0" x1="2.51" y1="5.9" x2="2.51" y2= "10.97"  data-name="Line 335"/>
    </g>
   </g>
  </g>
 </g>
</svg>
