<svg xmlns="http://www.w3.org/2000/svg" width="37.17" height="42.76" viewBox="0 0 37.17 42.76">
  <g id="diarioOficial" transform="translate(1 0.614)">
    <g id="Group_80" data-name="Group 80" transform="translate(0.016 0.386)">
      <path id="Path_139" data-name="Path 139" d="M.219,31.086H5.544V.126H4.131A3.706,3.706,0,0,0,.219,3.583Z" transform="translate(-0.219 -0.126)" fill="none" stroke="#355070" stroke-width="2"/>
    </g>
    <g id="Group_81" data-name="Group 81" transform="translate(5.285 0.386)">
      <path id="Path_140" data-name="Path 140" d="M60.77,31.085H30.885V.125H58.843a1.825,1.825,0,0,1,1.927,1.7Z" transform="translate(-30.885 -0.125)" fill="none" stroke="#355070" stroke-width="2"/>
    </g>
    <g id="Group_82" data-name="Group 82" transform="translate(5.306 0)">
      <path id="Path_141" data-name="Path 141" d="M31.007.178V40.906l2.769-.985,3,.985V34.635" transform="translate(-31.007 -0.178)" fill="none" stroke="#355070" stroke-width="2"/>
    </g>
    <path id="Path_142" data-name="Path 142" d="M104.341,151.294" transform="translate(-86.436 -129.014)" fill="none" stroke="#355070" stroke-width="2"/>
    <path id="Path_143" data-name="Path 143" d="M.125,204.247v1.528a3.889,3.889,0,0,0,3.889,3.889H5.4v-5.417h5.807v5.417H33.933v-5.417Z" transform="translate(-0.125 -172.87)" fill="none" stroke="#355070" stroke-width="2"/>
    <path id="Path_144" data-name="Path 144" d="M62.523,69.213A10.586,10.586,0,0,1,61.5,64.519c0-6.234,4.328-11.621,11.046-11.621a8.367,8.367,0,0,1,8.783,8.043v1c-.464,6.434-8.776,10.953-7.184,4.278l1.287-4.665a2.535,2.535,0,0,0-2.571-1.447,6.406,6.406,0,0,0-6.221,6.61c0,2.2,1.313,3.55,2.835,3.514a4.807,4.807,0,0,0,4.671-4.012" transform="translate(-51.49 -45.065)" fill="none" stroke="#355070" stroke-width="2"/>
  </g>
</svg>
