<?xml version="1.0" encoding="UTF-8"?>
<!DOCTYPE svg PUBLIC "-//W3C//DTD SVG 1.0//EN" "http://www.w3.org/TR/2001/REC-SVG-20010904/DTD/svg10.dtd">
<!-- Creator: CorelDRAW -->
<svg xmlns="http://www.w3.org/2000/svg" xml:space="preserve" width="20.9601mm" height="10.8766mm" version="1.0" style="shape-rendering:geometricPrecision; text-rendering:geometricPrecision; image-rendering:optimizeQuality; fill-rule:evenodd; clip-rule:evenodd"
viewBox="0 0 46.91 24.34"
 xmlns:xlink="http://www.w3.org/1999/xlink"
 xmlns:xodm="http://www.corel.com/coreldraw/odm/2003">
 <defs>
  <style type="text/css">
   <![CDATA[
    .str0 {stroke:#355070;stroke-width:1.18;stroke-linecap:round;stroke-linejoin:round;stroke-miterlimit:22.9256}
    .str1 {stroke:#6B84FF;stroke-width:1.18;stroke-linecap:round;stroke-linejoin:round;stroke-miterlimit:22.9256}
    .fil0 {fill:none}
   ]]>
  </style>
 </defs>
 <g id="Camada_x0020_1">
  <metadata id="CorelCorpID_0Corel-Layer"/>
  <g id="_3023825279936">
   <g id="educacaoCulturaEEsporte">
    <path id="Path_986" class="fil0 str0" d="M22.51 22.93c-2.51,-1.14 -5.24,-1.73 -8,-1.73 -3.37,0 -6.69,0.88 -9.62,2.55l-4.29 -3.54c2.78,-1.46 5.88,-2.23 9.03,-2.23 4.75,0 9.35,1.75 12.89,4.91l-0 0.03z" data-name="Path 986"/>
    <path id="Path_987" class="fil0 str0" d="M24.4 22.93c2.51,-1.14 5.24,-1.73 8,-1.73 3.37,0 6.69,0.88 9.62,2.55l4.29 -3.54c-2.78,-1.46 -5.89,-2.23 -9.03,-2.23 -4.75,0 -9.34,1.75 -12.89,4.9l-0 0.04z" data-name="Path 987"/>
    <path id="Path_988" class="fil0 str1" d="M27.17 15.82c-0.71,2.34 -1.94,4.49 -3.6,6.28" data-name="Path 988"/>
    <g id="Group_598" data-name="Path 989">
     <path id="Path_991" class="fil0 str0" d="M25.5 0.59c0.09,0.77 0.14,1.55 0.14,2.32 0,0 0,0 0,0 0,0.02 0,0.05 0,0.07 0,2.22 -0.41,4.42 -1.2,6.49 -2.27,-3.1 -5.62,-5.06 -9.35,-5.06 -0.18,0 -0.35,0.01 -0.52,0.01 3.63,1.01 6.63,4.13 8.16,8.29 0.72,1.99 1.09,4.09 1.09,6.21 0,0.02 0,0.04 0,0.07 -0,0 -0,0.01 -0,0.01 0,1.04 -0.09,2.08 -0.26,3.1 1.66,-1.79 2.89,-3.94 3.6,-6.28 0.57,-1.84 0.86,-3.76 0.86,-5.69 0,-0.01 0,-0.04 0,-0.05 0,-0.05 0,-0.12 0,-0.17 0,-3.27 -0.88,-6.49 -2.54,-9.31l-0 0z" data-name="Path 991"/>
     <circle id="Ellipse_30" class="fil0 str0" transform="matrix(0.973238 -0.229759 0.229759 0.973238 22.0976 3.07634)" r="1.86" data-name="Ellipse 30"/>
    </g>
    <g id="Group_599" data-name="Path 992">
     <path id="Path_995" class="fil0 str0" d="M22.33 16.68c-0.57,-1.36 -1.34,-2.64 -2.28,-3.77 -1.6,-1.96 -3.71,-3.45 -6.09,-4.31 0.43,0.4 0.84,0.83 1.21,1.29 1.09,1.3 1.93,2.8 2.48,4.41 -0.78,-0.22 -1.6,-0.33 -2.41,-0.33 -2,0 -3.94,0.68 -5.5,1.92 -0.1,0.09 -0.2,0.17 -0.3,0.26 2.61,-1.17 5.88,-0.81 8.79,0.88 1.4,0.82 2.66,1.88 3.69,3.14 0.51,0.6 0.96,1.26 1.36,1.94 0.01,-0.22 0.02,-0.44 0.02,-0.66 0,-1.63 -0.33,-3.25 -0.96,-4.75l-0 0z" data-name="Path 995"/>
     <circle id="Ellipse_31" class="fil0 str0" transform="matrix(0.866505 -0.499149 0.499149 0.866505 11.7755 11.1927)" r="1.89" data-name="Ellipse 31"/>
    </g>
   </g>
  </g>
 </g>
</svg>
