<?xml version="1.0" encoding="UTF-8"?>
<!DOCTYPE svg PUBLIC "-//W3C//DTD SVG 1.0//EN" "http://www.w3.org/TR/2001/REC-SVG-20010904/DTD/svg10.dtd">
<!-- Creator: CorelDRAW -->
<svg xmlns="http://www.w3.org/2000/svg" xml:space="preserve" width="14.7048mm" height="9.2286mm" version="1.0" style="shape-rendering:geometricPrecision; text-rendering:geometricPrecision; image-rendering:optimizeQuality; fill-rule:evenodd; clip-rule:evenodd"
viewBox="0 0 23.11 14.51"
 xmlns:xlink="http://www.w3.org/1999/xlink"
 xmlns:xodm="http://www.corel.com/coreldraw/odm/2003">
 <defs>
  <style type="text/css">
   <![CDATA[
    .str0 {stroke:#355070;stroke-width:0.62;stroke-linecap:round;stroke-miterlimit:22.9256}
    .fil0 {fill:none}
   ]]>
  </style>
 </defs>
 <g id="Camada_x0020_1">
  <metadata id="CorelCorpID_0Corel-Layer"/>
  <g id="_3060218893296">
   <g id="empresas">
    <g id="Group_23" data-name="Group 23">
     <g id="Group_587" data-name="Group 587">
      <polyline id="Path_917" class="fil0 str0" points="15.98,4.05 16.85,4.05 16.85,6.35 " data-name="Path 917"/>
      <line id="Line_316" class="fil0 str0" x1="12.8" y1="4.05" x2="14.4" y2= "4.05"  data-name="Line 316"/>
      <line id="Line_317" class="fil0 str0" x1="9.63" y1="4.05" x2="11.21" y2= "4.05"  data-name="Line 317"/>
      <polyline id="Path_918" class="fil0 str0" points="7.23,7.09 7.23,4.05 8.05,4.05 " data-name="Path 918"/>
      <rect id="Rectangle_1497" class="fil0 str0" x="16.74" y="7.71" width="2.49" height="1.58" data-name="Rectangle 1497"/>
      <rect id="Rectangle_1498" class="fil0 str0" x="16.74" y="9.99" width="2.49" height="3.17" data-name="Rectangle 1498"/>
      <polyline id="Path_919" class="fil0 str0" points="9.63,4.05 9.63,1.92 8.05,1.92 8.05,4.05 " data-name="Path 919"/>
      <polyline id="Path_920" class="fil0 str0" points="12.8,4.05 12.8,0.31 11.21,0.31 11.21,4.05 " data-name="Path 920"/>
      <polyline id="Path_921" class="fil0 str0" points="15.98,4.05 15.98,1.41 14.4,1.41 14.4,4.05 " data-name="Path 921"/>
      <g id="Group_585" data-name="Group 585">
       <g id="Group_583" data-name="Group 583">
        <rect id="Rectangle_1499" class="fil0 str0" x="7.15" y="9.99" width="1.58" height="1.48" data-name="Rectangle 1499"/>
       </g>
       <g id="Group_584" data-name="Group 584">
        <rect id="Rectangle_1500" class="fil0 str0" x="4.66" y="9.99" width="1.58" height="1.48" data-name="Rectangle 1500"/>
       </g>
      </g>
      <rect id="Rectangle_1501" class="fil0 str0" x="12.76" y="4.85" width="1.58" height="1.48" data-name="Rectangle 1501"/>
      <rect id="Rectangle_1502" class="fil0 str0" x="9.85" y="4.85" width="1.58" height="1.48" data-name="Rectangle 1502"/>
      <g id="Group_586" data-name="Group 586">
       <rect id="Rectangle_1503" class="fil0 str0" x="11.97" y="9.99" width="1.58" height="1.48" data-name="Rectangle 1503"/>
       <polyline id="Path_922" class="fil0 str0" points="4.05,14.19 10.64,14.19 10.64,8.23 14.77,8.23 14.77,14.19 11.43,14.19 " data-name="Path 922"/>
      </g>
      <polyline id="Path_923" class="fil0 str0" points="22.8,14.19 20.4,14.19 20.4,6.35 15.58,6.35 15.58,14.19 19.24,14.19 " data-name="Path 923"/>
      <polyline id="Path_924" class="fil0 str0" points="0.31,14.19 3.57,14.19 3.57,7.06 9.82,7.06 9.82,13.47 " data-name="Path 924"/>
     </g>
    </g>
   </g>
  </g>
 </g>
</svg>
