<?xml version="1.0" encoding="UTF-8"?>
<!DOCTYPE svg PUBLIC "-//W3C//DTD SVG 1.0//EN" "http://www.w3.org/TR/2001/REC-SVG-20010904/DTD/svg10.dtd">
<!-- Creator: CorelDRAW -->
<svg xmlns="http://www.w3.org/2000/svg" xml:space="preserve" width="10.4484mm" height="11.7729mm" version="1.0" style="shape-rendering:geometricPrecision; text-rendering:geometricPrecision; image-rendering:optimizeQuality; fill-rule:evenodd; clip-rule:evenodd"
viewBox="0 0 10.54 11.87"
 xmlns:xlink="http://www.w3.org/1999/xlink"
 xmlns:xodm="http://www.corel.com/coreldraw/odm/2003">
 <defs>
  <style type="text/css">
   <![CDATA[
    .str0 {stroke:#355070;stroke-width:0.53;stroke-linecap:round;stroke-linejoin:round;stroke-miterlimit:22.9256}
    .fil0 {fill:none}
   ]]>
  </style>
 </defs>
 <g id="Camada_x0020_1">
  <metadata id="CorelCorpID_0Corel-Layer"/>
  <g id="_3059940285328">
   <g id="fazenda">
    <g id="Group_596" data-name="Group 596">
     <path id="Path_979" class="fil0 str0" d="M2.43 1.2l0 0.25c0.16,0 0.32,0.05 0.46,0.13" data-name="Path 979"/>
     <path id="Path_980" class="fil0 str0" d="M2.43 1.46c-0.13,0 -0.25,0.04 -0.36,0.12 -0.08,0.06 -0.13,0.16 -0.13,0.27 0,0 0,0 0,0 -0,0 -0,0.01 -0,0.01 0,0.08 0.03,0.16 0.07,0.22 0.05,0.06 0.11,0.1 0.17,0.14 0.09,0.04 0.18,0.07 0.28,0.1l0.04 0.02c0.09,0.02 0.19,0.06 0.28,0.1 0.07,0.03 0.13,0.08 0.18,0.14 0.05,0.07 0.07,0.15 0.07,0.23 0,0.12 -0.05,0.23 -0.14,0.3 -0.11,0.08 -0.24,0.13 -0.38,0.13l0 0.29" data-name="Path 980"/>
     <path id="Path_981" class="fil0 str0" d="M2.48 3.14c-0.1,-0 -0.21,-0.03 -0.3,-0.07 -0.09,-0.04 -0.18,-0.1 -0.25,-0.17" data-name="Path 981"/>
     <path id="Path_982" class="fil0 str0" d="M4.74 2.35c0,1.15 -1,2.08 -2.24,2.08 -1.23,0 -2.24,-0.93 -2.24,-2.08 0,-1.15 1,-2.08 2.24,-2.08 1.24,0 2.24,0.93 2.24,2.08z" data-name="Path 982"/>
     <rect id="Rectangle_1510" class="fil0 str0" x="7.31" y="6.36" width="2.96" height="0.97" data-name="Rectangle 1510"/>
     <rect id="Rectangle_1511" class="fil0 str0" x="7.31" y="7.43" width="2.96" height="0.97" data-name="Rectangle 1511"/>
     <rect id="Rectangle_1512" class="fil0 str0" x="7.31" y="8.5" width="2.96" height="0.97" data-name="Rectangle 1512"/>
     <rect id="Rectangle_1513" class="fil0 str0" x="7.31" y="9.64" width="2.96" height="0.97" data-name="Rectangle 1513"/>
     <rect id="Rectangle_1514" class="fil0 str0" x="7.31" y="10.63" width="2.96" height="0.97" data-name="Rectangle 1514"/>
     <rect id="Rectangle_1515" class="fil0 str0" x="3.86" y="8.5" width="2.96" height="0.97" data-name="Rectangle 1515"/>
     <rect id="Rectangle_1516" class="fil0 str0" x="3.86" y="9.64" width="2.96" height="0.97" data-name="Rectangle 1516"/>
     <rect id="Rectangle_1517" class="fil0 str0" x="3.86" y="10.63" width="2.96" height="0.97" data-name="Rectangle 1517"/>
     <rect id="Rectangle_1518" class="fil0 str0" x="0.42" y="10.63" width="2.96" height="0.97" data-name="Rectangle 1518"/>
     <polyline id="Path_983" class="fil0 str0" points="0.71,7.87 4.8,4.72 6.03,5.45 8.52,3.02 7.71,3.02 7.27,2.59 " data-name="Path 983"/>
     <polyline id="Path_984" class="fil0 str0" points="9.46,4.52 9.05,4.12 9.05,3.56 6.12,6.42 4.89,5.7 1.25,8.41 0.53,8.41 " data-name="Path 984"/>
     <polyline id="Path_985" class="fil0 str0" points="7.29,2.23 9.75,2.23 9.75,4.4 " data-name="Path 985"/>
    </g>
   </g>
  </g>
 </g>
</svg>
