<?xml version="1.0" encoding="UTF-8"?>
<!DOCTYPE svg PUBLIC "-//W3C//DTD SVG 1.0//EN" "http://www.w3.org/TR/2001/REC-SVG-20010904/DTD/svg10.dtd">
<!-- Creator: CorelDRAW -->
<svg xmlns="http://www.w3.org/2000/svg" xml:space="preserve" width="9.7399mm" height="10.1165mm" version="1.0" style="shape-rendering:geometricPrecision; text-rendering:geometricPrecision; image-rendering:optimizeQuality; fill-rule:evenodd; clip-rule:evenodd"
viewBox="0 0 10.04 10.43"
 xmlns:xlink="http://www.w3.org/1999/xlink"
 xmlns:xodm="http://www.corel.com/coreldraw/odm/2003">
 <defs>
  <style type="text/css">
   <![CDATA[
    .str0 {stroke:#355070;stroke-width:0.55;stroke-linecap:round;stroke-linejoin:round;stroke-miterlimit:22.9256}
    .fil0 {fill:none}
   ]]>
  </style>
 </defs>
 <g id="Camada_x0020_1">
  <metadata id="CorelCorpID_0Corel-Layer"/>
  <g id="_3060217567280">
   <g id="gestaoeGoverno">
    <path id="Path_996" class="fil0 str0" d="M0.64 1.62c-0.2,-0 -0.36,-0.17 -0.36,-0.37 0,-0 0,-0 0,-0l0 -0.61c0,-0.2 0.16,-0.36 0.36,-0.37l8.77 0c0.2,0 0.36,0.16 0.36,0.37l0 0.61c0,0 0,0 0,0 0,0.2 -0.16,0.36 -0.36,0.37" data-name="Path 996"/>
    <path id="Path_997" class="fil0 str0" d="M9.41 6.54c0.2,0 0.36,0.16 0.36,0.37l0 0.61c0,0 0,0 0,0 0,0.2 -0.16,0.36 -0.36,0.36l-8.77 0c-0.2,-0 -0.36,-0.16 -0.36,-0.36 0,-0 0,-0 0,-0l0 -0.61c0,-0.2 0.16,-0.36 0.36,-0.37" data-name="Path 997"/>
    <path id="Path_998" class="fil0 str0" d="M8.96 1.44l-7.87 0c-0.09,0 -0.17,0.08 -0.17,0.17 0,0 0,0 0,0l0 5.03c0,0 0,0 0,0 0,0.09 0.08,0.17 0.17,0.17l7.87 0c0.09,-0 0.17,-0.08 0.17,-0.17 0,-0 0,-0 0,-0l0 -5.03c0,-0 0,-0 0,-0 0,-0.09 -0.08,-0.17 -0.17,-0.17z" data-name="Path 998"/>
    <polyline id="Path_999" class="fil0 str0" points="5.39,2.88 6.19,3.66 5.56,4.46 " data-name="Path 999"/>
    <path id="Path_1000" class="fil0 str0" d="M3.39 4.31c0,0 0.35,-1.45 2.49,-0.89" data-name="Path 1000"/>
    <line id="Line_336" class="fil0 str0" x1="2.61" y1="4.19" x2="3.41" y2= "6.13"  data-name="Line 336"/>
    <line id="Line_337" class="fil0 str0" x1="1.88" y1="5.5" x2="4.4" y2= "4.78"  data-name="Line 337"/>
    <line id="Line_338" class="fil0 str0" x1="5.4" y1="8.04" x2="7.5" y2= "10.16"  data-name="Line 338"/>
    <line id="Line_339" class="fil0 str0" x1="2.52" y1="10.16" x2="4.61" y2= "8.04"  data-name="Line 339"/>
    <path id="Path_1001" class="fil0 str0" d="M7.08 2.3c0.11,-0.12 0.27,-0.2 0.44,-0.2 0.17,0 0.33,0.07 0.44,0.2 0.12,0.13 0.18,0.3 0.18,0.47 0,0.17 -0.06,0.34 -0.18,0.47 -0.11,0.13 -0.27,0.2 -0.44,0.2 -0.17,0 -0.33,-0.07 -0.44,-0.2" data-name="Path 1001"/>
   </g>
  </g>
 </g>
</svg>
