<?xml version="1.0" encoding="UTF-8"?>
<!DOCTYPE svg PUBLIC "-//W3C//DTD SVG 1.0//EN" "http://www.w3.org/TR/2001/REC-SVG-20010904/DTD/svg10.dtd">
<!-- Creator: CorelDRAW -->
<svg xmlns="http://www.w3.org/2000/svg" xml:space="preserve" width="31.5346mm" height="7.2363mm" version="1.0" style="shape-rendering:geometricPrecision; text-rendering:geometricPrecision; image-rendering:optimizeQuality; fill-rule:evenodd; clip-rule:evenodd"
viewBox="0 0 78.87 18.1"
 xmlns:xlink="http://www.w3.org/1999/xlink"
 xmlns:xodm="http://www.corel.com/coreldraw/odm/2003">
 <defs>
  <style type="text/css">
   <![CDATA[
    .str0 {stroke:#355070;stroke-width:0.66;stroke-linecap:round;stroke-miterlimit:22.9256}
    .str1 {stroke:#355070;stroke-width:0.99;stroke-linecap:round;stroke-miterlimit:22.9256}
    .fil0 {fill:none}
    .fil1 {fill:#355070;fill-rule:nonzero}
   ]]>
  </style>
 </defs>
 <g id="Camada_x0020_1">
  <metadata id="CorelCorpID_0Corel-Layer"/>
  <g id="_3060403513264">
   <g id="paranaGovernoDoEstado">
    <path id="Path_10" class="fil0 str0" d="M40.26 4.25c0.06,-0 0.12,-0.01 0.18,-0.01 0.64,0 1.26,0.21 1.76,0.61 0.44,0.4 0.69,0.98 0.69,1.57 0,0.04 -0,0.08 -0,0.13 0,0.05 0,0.09 0,0.14 0,0.63 -0.25,1.23 -0.69,1.67 -0.49,0.42 -1.12,0.65 -1.77,0.65 -0.06,0 -0.12,-0 -0.17,-0.01l-0.89 0 0 1.67 -2.13 -0 0 -6.42 3.01 0zm-0.11 3.14c0.01,0 0.03,0 0.04,0 0.19,0 0.36,-0.08 0.49,-0.21 0.12,-0.15 0.19,-0.33 0.19,-0.52 0,-0.02 -0,-0.03 -0,-0.05 0,-0.02 0,-0.03 0,-0.05 0,-0.19 -0.07,-0.37 -0.19,-0.51 -0.13,-0.13 -0.31,-0.2 -0.49,-0.2 -0.01,0 -0.03,0 -0.04,0l-0.78 -0 0 1.53 0.78 0zm7.52 3.28l-0.32 -0.91 -2.41 0 -0.33 0.91 -2.18 0 2.71 -6.42 2.18 0 2.61 6.42 -2.26 0zm-2.18 -2.43l1.34 0 -0.66 -1.88 -0.68 1.88zm8.5 2.43l-0.77 -1.67 -0.79 0 0 1.67 -2.13 0 0 -6.42 3.11 0c0.07,-0 0.13,-0.01 0.2,-0.01 0.66,0 1.3,0.21 1.83,0.61 0.46,0.4 0.72,0.97 0.72,1.58 0,0.04 -0,0.08 -0,0.12 0,0.02 0,0.04 0,0.06 0,0.4 -0.09,0.79 -0.26,1.15 -0.17,0.34 -0.43,0.62 -0.76,0.82l1.26 2.09 -2.4 -0zm-1.56 -3.28l0.98 0c0.01,0 0.03,0 0.04,0 0.19,0 0.36,-0.08 0.49,-0.21 0.12,-0.15 0.19,-0.33 0.19,-0.52 0,-0.02 -0,-0.03 -0,-0.05 0,-0.02 0,-0.03 0,-0.05 0,-0.19 -0.07,-0.37 -0.19,-0.51 -0.13,-0.13 -0.31,-0.2 -0.49,-0.2 -0.01,0 -0.03,0 -0.04,0l-0.98 -0 0 1.53zm9.21 3.28l-0.32 -0.91 -2.41 0 -0.33 0.91 -2.18 0 2.71 -6.42 2.18 0 2.61 6.42 -2.26 0zm-2.18 -2.43l1.34 0 -0.66 -1.88 -0.68 1.88zm9.13 -3.99l1.92 0 0 6.42 -1.78 0 -2.53 -3.28 0 3.28 -1.93 0 0 -6.42 1.78 0 2.54 3.3 0 -3.3zm7.53 6.42l-0.32 -0.91 -2.41 0 -0.33 0.91 -2.18 0 2.71 -6.42 2.18 0 2.61 6.42 -2.26 0zm-2.18 -2.43l1.34 0 -0.66 -1.88 -0.68 1.88zm0.91 -6.13l1.55 0.55 -1.48 1.18 -1.3 -0.09 1.23 -1.64z" data-name="Path 10"/>
    <g id="Group_30" data-name="Group 30">
     <g id="Group_470" data-name="Group 470">
      <g id="Group_469" data-name="Group 469">
       <path id="Path_823" class="fil0 str1" d="M33.11 1.89l-3.77 14.2c0,0 -4.7,3.36 -14.63,0.08 -9.64,-3.18 -13.86,0.08 -13.86,0.08l3.77 -14.36c0,0 5.62,-2.97 13.24,-0.23 10.72,3.84 15.25,0.24 15.25,0.24z" data-name="Path 823"/>
       <path id="Path_824" class="fil0 str1" d="M19.52 9.09c0,1.35 -1.36,1.96 -2.3,2.04 -2.02,0.18 -3.62,-1.41 -3.48,-2.75 0.15,-1.47 1.24,-2.19 2.88,-2.04 1.44,0.13 2.91,1.4 2.91,2.75z" data-name="Path 824"/>
       <path id="Path_828" class="fil0 str1" d="M8.46 1.68c3.75,0.01 7.4,1.18 10.47,3.34 5.43,3.67 10.34,2.62 10.34,2.62" data-name="Path 828"/>
      </g>
     </g>
     <path id="Path_827" class="fil0 str1" d="M4.35 8.71c0,0 5.16,-0.14 10.19,4.13 5.03,4.27 11.89,3.37 11.89,3.37" data-name="Path 827"/>
    </g>
    <path id="Path_11" class="fil1" d="M39.67 15.35c-0.13,0.13 -0.29,0.23 -0.47,0.29 -0.21,0.07 -0.43,0.11 -0.66,0.11 -0.01,0 -0.02,-0 -0.02,-0 -0.02,0 -0.04,0 -0.06,0 -0.32,0 -0.62,-0.13 -0.85,-0.35 -0.23,-0.26 -0.36,-0.6 -0.36,-0.94 0,-0.01 0,-0.02 0,-0.02l0 -0.25c-0,-0.01 -0,-0.03 -0,-0.04 0,-0.24 0.05,-0.48 0.15,-0.7 0.09,-0.2 0.24,-0.37 0.43,-0.49 0.19,-0.11 0.41,-0.17 0.63,-0.17 0.01,0 0.02,0 0.03,0 0.03,-0 0.05,-0 0.08,-0 0.27,0 0.54,0.09 0.76,0.25 0.21,0.19 0.34,0.46 0.35,0.74l-0.67 0c-0.01,-0.13 -0.06,-0.25 -0.15,-0.35 -0.09,-0.07 -0.2,-0.1 -0.31,-0.1 -0.01,0 -0.02,0 -0.03,0 -0,0 -0.01,0 -0.01,0 -0.16,0 -0.31,0.09 -0.39,0.22 -0.1,0.18 -0.15,0.37 -0.15,0.57 0,0.02 0,0.04 0,0.06l0 0.17c-0,0.03 -0,0.05 -0,0.08 0,0.2 0.05,0.4 0.15,0.57 0.1,0.14 0.26,0.22 0.43,0.22 0.01,0 0.02,-0 0.04,-0 0.02,0 0.03,0 0.05,0 0.13,0 0.26,-0.04 0.36,-0.12l-0 -0.45 -0.48 0 0 -0.48 1.18 0 0 1.19zm2.86 -1.03c0,0.01 0,0.02 0,0.03 0,0.25 -0.05,0.49 -0.16,0.72 -0.1,0.21 -0.25,0.38 -0.45,0.5 -0.19,0.12 -0.41,0.18 -0.64,0.18 -0.01,0 -0.02,-0 -0.02,-0 -0.01,0 -0.02,0 -0.02,0 -0.22,0 -0.44,-0.06 -0.63,-0.17 -0.19,-0.11 -0.35,-0.28 -0.44,-0.48 -0.11,-0.23 -0.17,-0.48 -0.17,-0.73 0,0 0,-0 0,-0l0 -0.16c0,-0.01 -0,-0.02 -0,-0.04 0,-0.25 0.05,-0.49 0.16,-0.71 0.1,-0.21 0.25,-0.38 0.45,-0.5 0.19,-0.12 0.42,-0.18 0.64,-0.18 0.01,0 0.01,0 0.02,0 0.01,-0 0.01,-0 0.02,-0 0.22,0 0.44,0.06 0.64,0.18 0.19,0.12 0.35,0.29 0.45,0.5 0.11,0.22 0.16,0.47 0.16,0.72 0,0.01 -0,0.02 -0,0.02l0 0.13zm-0.71 -0.12c0,-0.03 0,-0.05 0,-0.08 0,-0.2 -0.05,-0.4 -0.15,-0.58 -0.08,-0.14 -0.23,-0.23 -0.4,-0.23 -0.01,0 -0.01,0 -0.01,0 -0.35,0 -0.53,0.26 -0.55,0.79l0 0.21c-0,0.03 -0,0.05 -0,0.08 0,0.2 0.05,0.4 0.14,0.58 0.08,0.14 0.24,0.23 0.4,0.23 0.01,0 0.01,-0 0.02,-0 0,0 0.01,0 0.01,0 0.16,0 0.31,-0.09 0.39,-0.23 0.1,-0.18 0.15,-0.38 0.15,-0.58 0,-0.02 -0,-0.04 -0,-0.07l-0 -0.13zm2.15 0.72l0.58 -2.11 0.78 0 -0.97 2.9 -0.76 0 -0.97 -2.9 0.77 0 0.57 2.11zm3.36 -0.44l-1.1 0 0 0.69 1.3 0 0 0.54 -1.99 0 0 -2.9 2 0 0 0.54 -1.3 0 0 0.61 1.1 0 0 0.52zm1.56 0.2l-0.38 0 0 1.02 -0.7 0 0 -2.9 1.14 0c0.03,-0 0.05,-0 0.08,-0 0.26,0 0.52,0.08 0.73,0.23 0.18,0.15 0.29,0.37 0.29,0.61 0,0.01 -0,0.03 -0,0.04 0,0.01 0,0.02 0,0.04 0,0.16 -0.04,0.32 -0.12,0.46 -0.09,0.14 -0.23,0.25 -0.38,0.32l0.6 1.17 0 0.03 -0.75 0 -0.51 -1.02zm-0.38 -0.54l0.44 0c0.01,0 0.02,0 0.03,0 0.1,0 0.2,-0.04 0.27,-0.11 0.07,-0.07 0.1,-0.17 0.1,-0.27 0,-0.01 -0,-0.02 -0,-0.02 0,-0.01 0,-0.02 0,-0.02 0,-0.1 -0.04,-0.2 -0.1,-0.27 -0.07,-0.07 -0.17,-0.11 -0.27,-0.11 -0.01,0 -0.02,0 -0.03,0l-0.44 0 0 0.8zm4.38 1.56l-0.69 0 -1.03 -1.8 0 1.8 -0.7 0 0 -2.9 0.7 0 1.02 1.8 0 -1.8 0.7 0 0 2.9zm2.89 -1.39c0,0.01 0,0.02 0,0.03 0,0.25 -0.05,0.49 -0.16,0.72 -0.1,0.21 -0.25,0.38 -0.45,0.5 -0.19,0.12 -0.41,0.18 -0.64,0.18 -0.01,0 -0.02,-0 -0.02,-0 -0.01,0 -0.02,0 -0.02,0 -0.22,0 -0.44,-0.06 -0.63,-0.17 -0.19,-0.12 -0.35,-0.28 -0.45,-0.49 -0.11,-0.23 -0.17,-0.48 -0.17,-0.73 0,0 0,-0 0,-0l0 -0.16c0,-0.01 -0,-0.02 -0,-0.03 0,-0.25 0.05,-0.5 0.16,-0.72 0.1,-0.21 0.25,-0.38 0.45,-0.5 0.19,-0.12 0.42,-0.18 0.64,-0.18 0.01,0 0.01,0 0.02,0 0.01,-0 0.01,-0 0.02,-0 0.22,0 0.44,0.06 0.63,0.17 0.19,0.12 0.35,0.29 0.45,0.5 0.11,0.22 0.16,0.47 0.16,0.72 0,0.01 -0,0.02 -0,0.02l0 0.13zm-0.71 -0.12c0,-0.03 0,-0.05 0,-0.08 0,-0.2 -0.05,-0.4 -0.15,-0.58 -0.08,-0.14 -0.23,-0.22 -0.4,-0.22 -0.01,0 -0.01,0 -0.02,0 -0.35,0 -0.53,0.26 -0.55,0.79l0 0.21c-0,0.03 -0,0.05 -0,0.08 0,0.2 0.05,0.4 0.14,0.58 0.08,0.14 0.24,0.23 0.4,0.23 0.01,0 0.01,-0 0.02,-0 0,0 0.01,0 0.01,0 0.16,0 0.31,-0.09 0.39,-0.23 0.1,-0.18 0.15,-0.38 0.15,-0.58 0,-0.02 -0,-0.04 -0,-0.07l0 -0.13zm2.08 1.51l0 -2.9 0.93 0c0.01,0 0.01,-0 0.02,-0 0.23,0 0.47,0.06 0.67,0.17 0.2,0.11 0.37,0.29 0.48,0.49 0.11,0.21 0.17,0.45 0.17,0.7 0,0 0,0.01 0,0.01l0 0.13c0,0.01 0,0.02 0,0.02 0,0.24 -0.06,0.48 -0.17,0.69 -0.11,0.21 -0.27,0.38 -0.47,0.49 -0.2,0.12 -0.44,0.18 -0.67,0.18 -0,0 -0.01,0 -0.01,0l-0.95 0zm0.7 -2.36l0 1.82 0.24 0c0.01,0 0.02,0 0.03,0 0.17,0 0.33,-0.08 0.43,-0.21 0.11,-0.17 0.16,-0.36 0.16,-0.56 0,-0.02 -0,-0.05 -0,-0.07l0 -0.13c0,-0.02 0,-0.05 0,-0.07 0,-0.2 -0.06,-0.39 -0.16,-0.56 -0.1,-0.13 -0.27,-0.21 -0.44,-0.21 -0.01,0 -0.02,0 -0.03,0l-0.24 -0zm4.39 0.97c0,0.01 0,0.02 0,0.03 0,0.25 -0.05,0.49 -0.16,0.72 -0.1,0.21 -0.25,0.38 -0.44,0.5 -0.19,0.12 -0.41,0.18 -0.64,0.18 -0.01,0 -0.02,-0 -0.02,-0 -0.01,0 -0.02,0 -0.02,0 -0.22,0 -0.44,-0.06 -0.63,-0.17 -0.19,-0.12 -0.35,-0.28 -0.45,-0.49 -0.11,-0.23 -0.17,-0.48 -0.17,-0.73 0,0 0,-0 0,-0l0 -0.16c0,-0.01 -0,-0.02 -0,-0.03 0,-0.25 0.05,-0.49 0.16,-0.72 0.1,-0.21 0.25,-0.38 0.45,-0.5 0.19,-0.12 0.42,-0.18 0.64,-0.18 0.01,0 0.01,0 0.02,0 0.01,-0 0.02,-0 0.02,-0 0.22,0 0.44,0.06 0.63,0.17 0.19,0.12 0.35,0.29 0.45,0.5 0.11,0.22 0.16,0.47 0.16,0.72 0,0.01 -0,0.02 -0,0.02l0 0.13zm-0.71 -0.12c0,-0.03 0,-0.05 0,-0.08 0,-0.2 -0.05,-0.4 -0.15,-0.58 -0.08,-0.14 -0.23,-0.22 -0.4,-0.22 -0.01,0 -0.01,0 -0.02,0 -0.35,0 -0.53,0.26 -0.55,0.79l0 0.21c-0,0.03 -0,0.05 -0,0.08 0,0.2 0.05,0.4 0.14,0.58 0.08,0.14 0.24,0.23 0.4,0.23 0.01,0 0.01,-0 0.02,-0 0,0 0.01,0 0.01,0 0.16,0 0.31,-0.09 0.39,-0.23 0.1,-0.18 0.15,-0.38 0.15,-0.58 0,-0.02 -0,-0.04 -0,-0.07l0 -0.13zm3.88 0.28l-1.1 0 0 0.69 1.3 0 0 0.54 -2 0 0 -2.9 2 0 0 0.54 -1.3 0 0 0.61 1.1 0 -0 0.52zm1.98 0.46c0,-0 0,-0.01 0,-0.01 0,-0.09 -0.04,-0.17 -0.11,-0.22 -0.12,-0.08 -0.25,-0.14 -0.38,-0.18 -0.15,-0.05 -0.3,-0.11 -0.44,-0.18 -0.33,-0.11 -0.55,-0.42 -0.56,-0.76 -0,-0 -0,-0.01 -0,-0.01 0,-0.15 0.05,-0.3 0.14,-0.41 0.1,-0.13 0.24,-0.23 0.4,-0.29 0.18,-0.07 0.36,-0.1 0.55,-0.1 0.01,0 0.02,0 0.02,0 0.01,0 0.02,-0 0.02,-0 0.18,0 0.37,0.04 0.54,0.11 0.16,0.07 0.29,0.18 0.38,0.32 0.09,0.14 0.14,0.29 0.14,0.46 0,0 0,0.01 0,0.01l-0.7 0c0,-0.01 0,-0.01 0,-0.02 0,-0.1 -0.04,-0.19 -0.11,-0.25 -0.08,-0.06 -0.17,-0.1 -0.27,-0.1 -0.01,0 -0.02,0 -0.02,0 -0.01,-0 -0.02,-0 -0.03,-0 -0.1,0 -0.19,0.03 -0.27,0.08 -0.07,0.05 -0.11,0.12 -0.11,0.21 0,0 0,0 0,0 0.01,0.08 0.05,0.16 0.12,0.2 0.13,0.08 0.27,0.15 0.42,0.19 0.17,0.05 0.34,0.12 0.49,0.21 0.29,0.14 0.47,0.43 0.47,0.75 0,0.01 0,0.02 0,0.03 0,0.22 -0.11,0.44 -0.29,0.57 -0.21,0.14 -0.46,0.22 -0.71,0.22 -0.02,0 -0.05,-0 -0.07,-0 -0.01,-0 -0.02,0 -0.02,0 -0.21,0 -0.42,-0.04 -0.61,-0.13 -0.17,-0.07 -0.32,-0.19 -0.43,-0.35 -0.09,-0.15 -0.14,-0.32 -0.14,-0.49 0,-0.01 0,-0.01 0,-0.02l0.7 -0c-0,0.01 -0,0.02 -0,0.04 0,0.11 0.04,0.22 0.12,0.31 0.1,0.07 0.22,0.11 0.34,0.11 0.02,0 0.03,-0 0.05,-0 0.01,0 0.02,0 0.02,0 0.09,0 0.18,-0.03 0.25,-0.08 0.06,-0.05 0.1,-0.12 0.1,-0.2 0,-0 0,-0 0,-0.01l0 0zm3.33 -1.59l-0.87 0 0 2.36 -0.7 0 0 -2.36 -0.85 0 0 -0.54 2.42 0 0 0.54zm1.7 1.82l-0.96 0 -0.17 0.54 -0.75 0 1.06 -2.9 0.66 0 1.07 2.9 -0.75 0 -0.17 -0.54zm-0.79 -0.54l0.62 0 -0.31 -1 -0.31 1zm1.92 1.08l0 -2.9 0.93 0c0.01,0 0.01,-0 0.02,-0 0.23,0 0.47,0.06 0.67,0.17 0.2,0.11 0.37,0.29 0.48,0.49 0.11,0.21 0.17,0.45 0.17,0.7 0,0 0,0.01 0,0.01l0 0.13c0,0.01 0,0.02 0,0.02 0,0.24 -0.06,0.48 -0.17,0.69 -0.11,0.21 -0.27,0.38 -0.47,0.49 -0.2,0.12 -0.44,0.18 -0.67,0.18 -0,0 -0.01,0 -0.01,0l-0.95 0zm0.7 -2.36l0 1.82 0.24 0c0.01,0 0.02,0 0.03,0 0.17,0 0.33,-0.08 0.43,-0.21 0.11,-0.17 0.16,-0.36 0.16,-0.56 0,-0.02 -0,-0.05 -0,-0.07l0 -0.13c0,-0.02 0,-0.05 0,-0.07 0,-0.2 -0.06,-0.39 -0.16,-0.56 -0.1,-0.14 -0.27,-0.21 -0.44,-0.21 -0.01,0 -0.02,0 -0.03,0l-0.24 0zm4.39 0.97c0,0.01 0,0.02 0,0.03 0,0.25 -0.05,0.49 -0.16,0.72 -0.1,0.21 -0.25,0.38 -0.45,0.5 -0.19,0.12 -0.41,0.18 -0.64,0.18 -0.01,0 -0.02,-0 -0.02,-0 -0.01,0 -0.02,0 -0.02,0 -0.22,0 -0.44,-0.06 -0.63,-0.17 -0.19,-0.12 -0.35,-0.29 -0.44,-0.49 -0.11,-0.23 -0.17,-0.48 -0.17,-0.73 0,0 0,-0 0,-0l0 -0.16c0,-0.01 -0,-0.02 -0,-0.04 0,-0.25 0.05,-0.49 0.16,-0.71 0.1,-0.21 0.25,-0.38 0.45,-0.5 0.19,-0.12 0.42,-0.18 0.64,-0.18 0.01,0 0.01,0 0.02,0 0.01,-0 0.01,-0 0.02,-0 0.22,0 0.44,0.06 0.63,0.17 0.19,0.12 0.35,0.29 0.45,0.5 0.11,0.22 0.16,0.47 0.16,0.72 0,0.01 -0,0.02 -0,0.02l0 0.13zm-0.71 -0.12c0,-0.03 0,-0.05 0,-0.08 0,-0.2 -0.05,-0.4 -0.15,-0.58 -0.08,-0.14 -0.23,-0.22 -0.4,-0.22 -0.01,0 -0.01,0 -0.02,0 -0.35,0 -0.53,0.26 -0.55,0.79l0 0.21c-0,0.03 -0,0.05 -0,0.08 0,0.2 0.05,0.4 0.14,0.58 0.08,0.14 0.24,0.23 0.4,0.23 0.01,0 0.01,-0 0.02,-0 0,0 0.01,0 0.01,0 0.16,0 0.31,-0.09 0.39,-0.23 0.1,-0.18 0.15,-0.38 0.15,-0.58 0,-0.02 -0,-0.04 -0,-0.07l0 -0.13z" data-name="Path 11"/>
   </g>
  </g>
 </g>
</svg>
