<?xml version="1.0" encoding="UTF-8"?>
<!DOCTYPE svg PUBLIC "-//W3C//DTD SVG 1.0//EN" "http://www.w3.org/TR/2001/REC-SVG-20010904/DTD/svg10.dtd">
<!-- Creator: CorelDRAW -->
<svg xmlns="http://www.w3.org/2000/svg" xml:space="preserve" width="13.155mm" height="10.6027mm" version="1.0" style="shape-rendering:geometricPrecision; text-rendering:geometricPrecision; image-rendering:optimizeQuality; fill-rule:evenodd; clip-rule:evenodd"
viewBox="0 0 17.51 14.11"
 xmlns:xlink="http://www.w3.org/1999/xlink"
 xmlns:xodm="http://www.corel.com/coreldraw/odm/2003">
 <defs>
  <style type="text/css">
   <![CDATA[
    .str1 {stroke:#355070;stroke-width:0.7;stroke-linecap:round;stroke-linejoin:round;stroke-miterlimit:22.9256}
    .str0 {stroke:#6B84FF;stroke-width:0.7;stroke-linecap:round;stroke-linejoin:round;stroke-miterlimit:22.9256}
    .fil0 {fill:none}
   ]]>
  </style>
 </defs>
 <g id="Camada_x0020_1">
  <metadata id="CorelCorpID_0Corel-Layer"/>
  <g id="_3060215312816">
   <g id="infraestruturaeLogica">
    <line id="Line_336" class="fil0 str0" x1="9.48" y1="4.02" x2="9.48" y2= "4.78"  data-name="Line 336"/>
    <line id="Line_337" class="fil0 str1" x1="9.48" y1="1.33" x2="4.6" y2= "0.35"  data-name="Line 337"/>
    <polyline id="Path_979" class="fil0 str1" points="4.6,2.12 4.6,0.36 2.13,1.27 " data-name="Path 979"/>
    <polyline id="Path_980" class="fil0 str1" points="7.71,10.05 7.71,13.76 17.16,13.76 17.16,4.7 13.99,4.7 13.99,13.76 " data-name="Path 980"/>
    <line id="Line_338" class="fil0 str1" x1="10.81" y1="13.76" x2="10.81" y2= "8.04"  data-name="Line 338"/>
    <line id="Line_339" class="fil0 str1" x1="7.71" y1="11.41" x2="17.16" y2= "11.41"  data-name="Line 339"/>
    <line id="Line_340" class="fil0 str1" x1="9.05" y1="9.13" x2="17.16" y2= "9.13"  data-name="Line 340"/>
    <line id="Line_341" class="fil0 str1" x1="11.97" y1="6.86" x2="17.16" y2= "6.86"  data-name="Line 341"/>
    <polyline id="Path_981" class="fil0 str1" points="2.59,5.72 0.49,5.72 0.49,7.16 2.59,7.16 2.59,6.48 " data-name="Path 981"/>
    <line id="Line_342" class="fil0 str0" x1="9.48" y1="4.75" x2="9.48" y2= "4.75"  data-name="Line 342"/>
    <polyline id="Path_982" class="fil0 str1" points="9.48,4.28 9.48,5.05 10.59,5.47 10.59,6.87 8.3,6.87 8.3,5.47 8.7,5.13 " data-name="Path 982"/>
    <line id="Line_344" class="fil0 str1" x1="1.54" y1="4.97" x2="1.54" y2= "4.02"  data-name="Line 344"/>
    <polyline id="Path_983" class="fil0 str1" points="5.53,4.1 5.53,12.42 6.47,12.42 6.47,13.76 2.78,13.76 2.78,12.42 3.76,12.42 3.76,3.85 0.35,3.85 0.35,2.49 10.36,2.49 10.71,3.85 5.53,3.85 " data-name="Path 983"/>
   </g>
  </g>
 </g>
</svg>
