<?xml version="1.0" encoding="UTF-8"?>
<!DOCTYPE svg PUBLIC "-//W3C//DTD SVG 1.0//EN" "http://www.w3.org/TR/2001/REC-SVG-20010904/DTD/svg10.dtd">
<!-- Creator: CorelDRAW -->
<svg xmlns="http://www.w3.org/2000/svg" xml:space="preserve" width="12.6512mm" height="11.2367mm" version="1.0" style="shape-rendering:geometricPrecision; text-rendering:geometricPrecision; image-rendering:optimizeQuality; fill-rule:evenodd; clip-rule:evenodd"
viewBox="0 0 13.85 12.3"
 xmlns:xlink="http://www.w3.org/1999/xlink"
 xmlns:xodm="http://www.corel.com/coreldraw/odm/2003">
 <defs>
  <style type="text/css">
   <![CDATA[
    .str1 {stroke:#355070;stroke-width:0.11;stroke-miterlimit:22.9256}
    .str4 {stroke:#355070;stroke-width:0.12;stroke-miterlimit:22.9256}
    .str0 {stroke:#355070;stroke-width:0.1;stroke-miterlimit:22.9256}
    .str6 {stroke:#355070;stroke-width:0.13;stroke-miterlimit:22.9256}
    .str2 {stroke:#355070;stroke-width:0.1;stroke-miterlimit:22.9256}
    .str5 {stroke:#355070;stroke-width:0.13;stroke-miterlimit:22.9256}
    .str3 {stroke:#355070;stroke-width:0.11;stroke-miterlimit:22.9256}
    .str7 {stroke:#355070;stroke-width:0.08;stroke-miterlimit:22.9256}
    .fil3 {fill:none;fill-rule:nonzero}
    .fil0 {fill:#355070}
    .fil1 {fill:white}
    .fil2 {fill:#355070;fill-rule:nonzero}
   ]]>
  </style>
 </defs>
 <g id="Camada_x0020_1">
  <metadata id="CorelCorpID_0Corel-Layer"/>
  <g id="_3059574048576">
   <path class="fil0" d="M2.53 2.08l-0.54 0 0 -0.66 0.54 0 0 0.66zm0 1.04l-0.54 0 0 -0.66 0.54 0 0 0.66zm2.29 0.59l1.05 0 0 1.01 -1.05 0 0 -1.01zm3.89 2.21l-0.96 -0.4c-0.05,-0.02 -0.11,-0.01 -0.15,0.02l0 -0.08c0.11,-0.03 0.2,-0.13 0.2,-0.26 0,-0.04 -0.01,-0.08 -0.02,-0.12l-0.49 -1.31c-0.03,-0.07 -0.07,-0.13 -0.13,-0.17l-1.66 -1.22c-0.06,-0.04 -0.13,-0.06 -0.19,-0.06 -0.07,0 -0.13,0.02 -0.19,0.06l-1.33 0.98 0 -2.4 0.22 0c0.07,0 0.11,-0.08 0.07,-0.13 -0.01,-0.01 -0.01,-0.02 -0.02,-0.02l-1.33 -0.82 -1.33 0.82c-0.01,0.01 -0.02,0.01 -0.02,0.02 -0.04,0.05 -0.01,0.13 0.07,0.13l0.19 0 0 8.42 2.17 0 0 -0.03 0.09 0 0.4 0 0.06 0 0 -3.37 1.01 -0.44 1.01 0.44 0 3.47 0.05 0 0.4 0 0.23 0 0.4 0 0 0.03 1.19 -1.63 0 -1.66c0.09,0.02 0.18,-0.04 0.18,-0.14 0,-0.06 -0.04,-0.11 -0.09,-0.13l0 0z"/>
   <path class="fil0" d="M-0 6.53l0 2.98 8.54 0 -1.65 -1.02c-2.07,-1.28 -4.46,-1.96 -6.89,-1.96l-0 0z"/>
   <path class="fil1" d="M5.17 7.59c-0,0 -0,-0 -0,-0 -0.09,-0.02 -2.75,-0.52 -4.83,1.91l0.92 0c0.75,-0.95 2.01,-1.98 3.91,-1.91l-0 0z"/>
   <path class="fil1" d="M5.79 7.88c-0,-0 -0,-0 -0.01,-0 -0.21,-0.02 -1.91,-0.14 -3.15,1.63l0.75 0c0.54,-0.8 1.33,-1.57 2.41,-1.63l0 -0z"/>
   <path class="fil1" d="M6.23 8.1c-0,-0 -0,-0 -0,-0 -0.12,0.01 -1.11,0.1 -1.69,1.4l0.41 0c0.26,-0.67 0.67,-1.28 1.28,-1.4z"/>
   <path class="fil1" d="M4.43 7.3c0,0 -2.17,-0.73 -4.43,0.6l0 0.83c0.9,-0.86 2.38,-1.78 4.43,-1.43l0 -0z"/>
   <path class="fil1" d="M-0 7.25c0.79,-0.38 1.77,-0.58 2.94,-0.39 0,0 -0.01,-0.01 -0.04,-0.01 -0.25,-0.06 -0.5,-0.11 -0.76,-0.15 -0.53,-0.06 -1.29,-0.08 -2.14,0.14l0 0.41z"/>
   <path class="fil0" d="M13.85 6.53l0 2.98 -8.54 0 1.65 -1.02c2.07,-1.28 4.46,-1.96 6.89,-1.96l-0 0z"/>
   <path class="fil1" d="M8.68 7.59c0,0 0,0 0,0 -0,0 -0,0 -0,0 1.91,-0.07 3.16,0.96 3.91,1.91l0.92 0c-2.08,-2.43 -4.74,-1.93 -4.83,-1.91l-0 0z"/>
   <path class="fil1" d="M8.06 7.87c-0,0 -0,0 -0,0 -0,0 -0,0 -0,0 1.07,0.06 1.86,0.83 2.41,1.63l0.75 0c-1.24,-1.77 -2.94,-1.65 -3.15,-1.63l-0 0z"/>
   <path class="fil1" d="M7.62 8.1c-0,0 -0,0 -0,0 0,0 -0,0 -0,0 0.61,0.12 1.02,0.73 1.28,1.4l0.41 0c-0.58,-1.3 -1.58,-1.4 -1.69,-1.4l0 -0z"/>
   <path class="fil1" d="M7.29 8.28c-0,0 -0,0 -0,0 0.36,0.27 0.51,0.72 0.55,1.22l0.29 0c-0.21,-0.83 -0.75,-1.17 -0.83,-1.22l0 0z"/>
   <path class="fil1" d="M6.93 8.5l-0 0c0.13,0.16 0.1,0.54 0.01,1l0.14 0c0.1,-0.79 -0.11,-0.97 -0.15,-1l0 0z"/>
   <path class="fil1" d="M9.41 7.3c2.05,-0.35 3.53,0.57 4.43,1.43l0 -0.83c-2.26,-1.34 -4.43,-0.6 -4.43,-0.6l0 0z"/>
   <path class="fil1" d="M13.85 7.25l0 -0.41c-0.85,-0.22 -1.6,-0.2 -2.14,-0.14 -0.25,0.04 -0.51,0.09 -0.76,0.15l0 0c-0.03,0.01 -0.04,0.01 -0.04,0.01 1.16,-0.2 2.14,0.01 2.94,0.39z"/>
   <path class="fil2" d="M11.12 2.25c0.36,0.43 0.3,1.08 -0.13,1.44 -0.43,0.36 -1.08,0.3 -1.44,-0.13 -0.36,-0.43 -0.3,-1.08 0.13,-1.44 0.43,-0.36 1.08,-0.3 1.44,0.13l0 -0z"/>
   <line class="fil3 str0" x1="9.41" y1="1.64" x2="9.56" y2= "1.83" />
   <line class="fil3 str0" x1="8.97" y1="2" x2="9.17" y2= "2.15" />
   <line class="fil3 str1" x1="9.92" y1="1.39" x2="10" y2= "1.67" />
   <line class="fil3 str0" x1="10.6" y1="1.37" x2="10.56" y2= "1.62" />
   <line class="fil3 str0" x1="11.23" y1="1.65" x2="11.08" y2= "1.86" />
   <line class="fil3 str2" x1="11.68" y1="2.17" x2="11.44" y2= "2.3" />
   <line class="fil3 str0" x1="11.86" y1="2.82" x2="11.61" y2= "2.84" />
   <line class="fil3 str3" x1="11.76" y1="3.5" x2="11.49" y2= "3.4" />
   <line class="fil3 str0" x1="11.38" y1="4.06" x2="11.2" y2= "3.89" />
   <line class="fil3 str4" x1="10.79" y1="4.42" x2="10.69" y2= "4.12" />
   <line class="fil3 str0" x1="10.11" y1="4.49" x2="10.14" y2= "4.24" />
   <line class="fil3 str0" x1="9.47" y1="4.27" x2="9.59" y2= "4.05" />
   <line class="fil3 str5" x1="8.98" y1="3.79" x2="9.26" y2= "3.6" />
   <line class="fil3 str2" x1="8.73" y1="3.16" x2="8.99" y2= "3.11" />
   <line class="fil3 str6" x1="8.78" y1="2.48" x2="9.1" y2= "2.56" />
   <path class="fil0" d="M12.98 6.47l-0.51 -1.55c-0.05,-0.16 -0.31,-0.16 -0.36,0.01l-0.45 1.56c-0.1,0.35 0.17,0.69 0.56,0.75l0 1.15 0.21 0 0 -1.15c0.4,-0.05 0.67,-0.41 0.55,-0.76l0 -0z"/>
   <path class="fil2" d="M1.39 12.3l0.21 0 0 -2.24 -0.21 0 0 2.24zm4.67 0l0.21 0 0 -2.04 0.77 0 0 -0.2 -1.76 0 0 0.2 0.77 0 0 2.04 0 0zm6.4 -1.53c0,-0.41 -0.35,-0.71 -0.81,-0.71l-0.92 0 0 2.24 0.21 0 0 -0.83 0.65 0 0.58 0.83 0.24 0 -0.59 -0.84c0.37,-0.06 0.64,-0.33 0.64,-0.69l-0 -0zm-1.52 -0.51l0.67 0c0.37,0 0.64,0.2 0.64,0.51 0,0.31 -0.26,0.5 -0.64,0.5l-0.67 0 0 -1.01 0 0z"/>
   <path class="fil0" d="M11.97 6.5l-0.32 -0.97c-0.03,-0.1 -0.2,-0.1 -0.23,0l-0.28 0.98c-0.06,0.22 0.1,0.43 0.35,0.47l0 0.72 0.13 0 0 -0.72c0.25,-0.03 0.42,-0.26 0.35,-0.48l0 -0z"/>
   <rect class="fil0" x="1.91" y="2.37" width="0.93" height="0.87"/>
   <rect class="fil0" x="5.34" y="3.65" width="0.03" height="1.09"/>
   <rect class="fil0 str7" transform="matrix(2.64843E-14 -3.52436 0.999992 9.33412E-14 4.81315 4.20743)" width="0.01" height="1.09"/>
  </g>
 </g>
</svg>
