<?xml version="1.0" encoding="UTF-8"?>
<!DOCTYPE svg PUBLIC "-//W3C//DTD SVG 1.0//EN" "http://www.w3.org/TR/2001/REC-SVG-20010904/DTD/svg10.dtd">
<!-- Creator: CorelDRAW -->
<svg xmlns="http://www.w3.org/2000/svg" xml:space="preserve" width="12.7146mm" height="8.6612mm" version="1.0" style="shape-rendering:geometricPrecision; text-rendering:geometricPrecision; image-rendering:optimizeQuality; fill-rule:evenodd; clip-rule:evenodd"
viewBox="0 0 17.96 12.24"
 xmlns:xlink="http://www.w3.org/1999/xlink"
 xmlns:xodm="http://www.corel.com/coreldraw/odm/2003">
 <defs>
  <style type="text/css">
   <![CDATA[
    .str0 {stroke:#355070;stroke-width:0.56;stroke-linecap:round;stroke-miterlimit:22.9256}
    .fil0 {fill:none}
   ]]>
  </style>
 </defs>
 <g id="Camada_x0020_1">
  <metadata id="CorelCorpID_0Corel-Layer"/>
  <g id="_3059954031952">
   <g id="legislacao">
    <path id="Path_904" class="fil0 str0" d="M13.65 7.14l-3.17 0c0.46,1.34 1.87,2.31 3.54,2.31 1.67,0 3.08,-0.97 3.54,-2.31l-3.32 0 0 -5.69 -3.98 0c-0.22,-0.7 -0.86,-1.18 -1.59,-1.18 -0.73,0 -1.38,0.48 -1.59,1.18l-3.38 -0 0 5.69 -3.31 0c0.46,1.34 1.87,2.31 3.54,2.31 1.67,0 3.08,-0.97 3.54,-2.31l-3.17 0m3.92 3l-2.43 1.81 6.08 0 -2.74 -1.93 0 -6.57c0.65,-0.17 1.13,-0.73 1.2,-1.41m-3.3 -0c0.07,0.67 0.55,1.23 1.2,1.41m-0.3 -1.55c0,-0.01 -0,-0.01 -0,-0.02 0,-0.42 0.34,-0.75 0.75,-0.75 0.42,0 0.75,0.34 0.75,0.75 0,0.41 -0.33,0.74 -0.73,0.75l-0.02 -0c-0,0 -0.01,0 -0.01,0 -0.41,0 -0.74,-0.33 -0.74,-0.73l-0 -0z" data-name="Path 904"/>
   </g>
  </g>
 </g>
</svg>
