<?xml version="1.0" encoding="UTF-8"?>
<!DOCTYPE svg PUBLIC "-//W3C//DTD SVG 1.0//EN" "http://www.w3.org/TR/2001/REC-SVG-20010904/DTD/svg10.dtd">
<!-- Creator: CorelDRAW -->
<svg xmlns="http://www.w3.org/2000/svg" xml:space="preserve" width="10.1038mm" height="10.0812mm" version="1.0" style="shape-rendering:geometricPrecision; text-rendering:geometricPrecision; image-rendering:optimizeQuality; fill-rule:evenodd; clip-rule:evenodd"
viewBox="0 0 8.42 8.4"
 xmlns:xlink="http://www.w3.org/1999/xlink"
 xmlns:xodm="http://www.corel.com/coreldraw/odm/2003"
 enable-background="new 0 0 64 64">
 <defs>
  <style type="text/css">
   <![CDATA[
    .fil0 {fill:#355070;fill-rule:nonzero}
   ]]>
  </style>
 </defs>
 <g id="Camada_x0020_1">
  <metadata id="CorelCorpID_0Corel-Layer"/>
  <g id="_3059487411968">
   <g id="_2200896498928">
    <g>
     <path class="fil0" d="M8.42 2.78c0,-0.34 -0.27,-0.62 -0.62,-0.62 -0.17,0 -0.32,0.07 -0.43,0.18l-0.4 0.4 -0.45 0.45 0 -1.31c0.46,-0.07 0.82,-0.46 0.82,-0.94 0,-0.52 -0.42,-0.95 -0.95,-0.95l-5.44 0c-0.52,0 -0.95,0.42 -0.95,0.95l0 6.79c0,0.07 0.06,0.13 0.13,0.13l0.67 0 0 0.4c0,0.07 0.06,0.13 0.13,0.13l5.44 0c0.07,0 0.13,-0.06 0.13,-0.13l0 -3.34 1.32 -1.32 0.14 -0.14c-0.07,0.35 -0.24,0.67 -0.5,0.93l-0.65 0.65 0.19 0.19 0.65 -0.65c0.38,-0.38 0.6,-0.89 0.61,-1.43 0.08,-0.11 0.14,-0.24 0.14,-0.38l0 0 0.01 0.02zm-0.86 -0.24c0.07,-0.07 0.15,-0.1 0.24,-0.1 0.19,0 0.35,0.15 0.35,0.35 0,0.09 -0.04,0.18 -0.1,0.24l-0.31 0.31 -0.49 -0.49 0.31 -0.31 0 0zm-0.5 0.5l0.15 0.15 -1.71 1.71 -0.15 -0.15 1.71 -1.71zm-3.23 3.58l0.28 -0.56 0.41 0.41 -0.56 0.28 -0.13 -0.13zm0.43 -0.79l0.89 -0.89 0.49 0.49 -0.89 0.89 -0.49 -0.49zm2.12 -5.57c0.37,0 0.67,0.31 0.67,0.67 0,0.37 -0.31,0.67 -0.67,0.67l-4.77 0c0.18,-0.17 0.29,-0.41 0.29,-0.67 0,-0.26 -0.11,-0.51 -0.29,-0.67l4.77 0zm-5.3 1.34l0 -0.39c0,-0.07 0.07,-0.13 0.13,-0.13l0.39 0c-0.06,0.26 -0.26,0.48 -0.52,0.52l0 0zm-0.82 5.99l0 -6.65c0,-0.37 0.3,-0.67 0.67,-0.67 0.33,0 0.6,0.23 0.67,0.54l-0.39 0c-0.22,0 -0.4,0.18 -0.4,0.4l0 6.38 -0.54 0 0 -0zm5.97 0.54l-5.16 0 0 -6.24 5.16 0 0 1.57 -0.6 0.6 -4.02 0 0 0.27 3.75 0 -0.27 0.27 -3.48 0 0 0.27 3.21 0 -0.85 0.85c-0.01,0.01 -0.02,0.02 -0.03,0.04l0 0 -0.4 0.82c-0.03,0.06 -0.02,0.11 0.03,0.16l0.04 0.04 -0.31 0.31 0.19 0.19 0.31 -0.31 0.04 0.04c0.03,0.03 0.06,0.04 0.09,0.04 0.02,0 0.04,-0.01 0.06,-0.02l0.82 -0.4 0 0c0.01,-0.01 0.03,-0.01 0.04,-0.03l1.09 -1.09 0.31 -0.31 0 2.93 0.01 0zm-0.4 -2.91l-0.15 -0.15 1.71 -1.71 0.15 0.15 -1.71 1.71z"/>
     <polygon class="fil0" points="1.63,2.44 5.71,2.44 5.71,2.71 1.63,2.71 "/>
     <polygon class="fil0" points="1.63,2.98 5.71,2.98 5.71,3.25 1.63,3.25 "/>
     <polygon class="fil0" points="1.63,3.52 5.71,3.52 5.71,3.8 1.63,3.8 "/>
     <polygon class="fil0" points="1.63,6.78 3.12,6.78 3.12,7.05 1.63,7.05 "/>
     <polygon class="fil0" points="1.63,7.32 5.71,7.32 5.71,7.59 1.63,7.59 "/>
    </g>
   </g>
  </g>
 </g>
</svg>
