<?xml version="1.0" encoding="UTF-8"?>
<!DOCTYPE svg PUBLIC "-//W3C//DTD SVG 1.0//EN" "http://www.w3.org/TR/2001/REC-SVG-20010904/DTD/svg10.dtd">
<!-- Creator: CorelDRAW -->
<svg xmlns="http://www.w3.org/2000/svg" xml:space="preserve" width="9.5662mm" height="13.3125mm" version="1.0" style="shape-rendering:geometricPrecision; text-rendering:geometricPrecision; image-rendering:optimizeQuality; fill-rule:evenodd; clip-rule:evenodd"
viewBox="0 0 8.84 12.3"
 xmlns:xlink="http://www.w3.org/1999/xlink"
 xmlns:xodm="http://www.corel.com/coreldraw/odm/2003">
 <defs>
  <style type="text/css">
   <![CDATA[
    .str0 {stroke:#355070;stroke-width:0.49;stroke-linecap:round;stroke-linejoin:round;stroke-miterlimit:22.9256}
    .fil0 {fill:none}
   ]]>
  </style>
 </defs>
 <g id="Camada_x0020_1">
  <metadata id="CorelCorpID_0Corel-Layer"/>
  <g id="_3060218929824">
   <g id="meioAmbienteeTurismo">
    <path id="Path_937" class="fil0 str0" d="M4.42 3.7c2.3,-0 4.17,1.87 4.17,4.17 0,2.3 -1.87,4.17 -4.17,4.17 -2.3,0 -4.17,-1.87 -4.17,-4.17 0,-2.3 1.87,-4.17 4.17,-4.17l-0 0z" data-name="Path 937"/>
    <path id="Path_938" class="fil0 str0" d="M2.54 1.42c0,0 1.7,0.86 1.7,1.97 0,0 0.11,-1.04 0.75,-1.21" data-name="Path 938"/>
    <path id="Path_939" class="fil0 str0" d="M1.13 5.39c0.2,0.28 1.31,0.41 1.31,0.41l0.76 0.2 -0.1 0.39 0.61 0 0 0.86c0,0 -1.59,0.16 -1.53,0.33 0.07,0.16 0.39,0.92 0.53,0.99 0.13,0.07 0.95,0.72 1,1.22 0.05,0.49 0.15,1.81 0.15,1.91 0,0.1 0.72,-1.15 1.02,-1.77 0.3,-0.62 0.56,-1.25 0.46,-1.38 -0.1,-0.13 -0.16,-0.75 -0.33,-1.38 -0.14,-0.55 -0.55,-0.84 -0.68,-1.35 -0,-0 0.1,-0.59 0.12,-0.65 0.07,-0.29 0.29,-0.53 0.57,-0.63l0.82 0.13c0,0 0.72,0.69 0.69,0.92 -0.03,0.23 -0.49,0.95 -0.26,1.05 0.23,0.1 0.89,0.36 0.92,0.53 0.03,0.16 0.39,1.68 0.39,1.68l0.8 0.5" data-name="Path 939"/>
    <path id="Path_940" class="fil0 str0" d="M5.1 2.92c0,0 1.47,0.27 1.47,-2.17 0,0 -1.02,0.4 -1.47,0.51 -0.46,0.11 -0.67,0.27 -0.64,0.75" data-name="Path 940"/>
    <path id="Path_941" class="fil0 str0" d="M3.76 1.62c0,0 0.05,-1.28 -1.34,-1.16 -0.88,0.08 -1.22,-0.22 -1.22,-0.22 0,0 -0.07,1.54 0.55,2 0.62,0.46 1.42,0.14 1.42,0.14" data-name="Path 941"/>
   </g>
  </g>
 </g>
</svg>
