<svg xmlns="http://www.w3.org/2000/svg" width="54.634" height="47.352" viewBox="0 0 54.634 47.352">
  <g id="Group_1905" data-name="Group 1905" transform="translate(1.001 1)">
    <g id="Group_1885" data-name="Group 1885">
      <path id="Path_908" data-name="Path 908" d="M404.278,337.843h34.6a1.276,1.276,0,0,1,1.185,1.3v24.195a1.175,1.175,0,0,1-1.166,1.185H427.274c-.09,0-.349-.034-.573-.034a.558.558,0,0,0-.35.072l-7.02,7.107v-6.031a1.141,1.141,0,0,0-.306-.782,1.066,1.066,0,0,0-.737-.338h-14.01a1.153,1.153,0,0,1-1.185-1.122V339.145A1.255,1.255,0,0,1,404.278,337.843Z" transform="translate(-403.092 -337.843)" fill="none" stroke="#355070" stroke-width="2"/>
      <path id="Path_908-2" data-name="Path 908" d="M424.992,367.864h2.22c.088,0,.341-.033.559-.033a.545.545,0,0,1,.341.07l6.846,6.931v-5.882a1.1,1.1,0,0,1,.3-.762,1.038,1.038,0,0,1,.719-.329h13.664a1.125,1.125,0,0,0,1.156-1.094V343.113a1.225,1.225,0,0,0-1.156-1.27h-8.887" transform="translate(-398.165 -330.916)" fill="none" stroke="#355070" stroke-width="2"/>
    </g>
  </g>
</svg>
