<?xml version="1.0" encoding="UTF-8"?>
<!DOCTYPE svg PUBLIC "-//W3C//DTD SVG 1.0//EN" "http://www.w3.org/TR/2001/REC-SVG-20010904/DTD/svg10.dtd">
<!-- Creator: CorelDRAW -->
<svg xmlns="http://www.w3.org/2000/svg" xml:space="preserve" width="13.4036mm" height="9.5772mm" version="1.0" style="shape-rendering:geometricPrecision; text-rendering:geometricPrecision; image-rendering:optimizeQuality; fill-rule:evenodd; clip-rule:evenodd"
viewBox="0 0 20.1 14.37"
 xmlns:xlink="http://www.w3.org/1999/xlink"
 xmlns:xodm="http://www.corel.com/coreldraw/odm/2003">
 <defs>
  <style type="text/css">
   <![CDATA[
    .str0 {stroke:#355070;stroke-width:0.6;stroke-linecap:round;stroke-miterlimit:22.9256}
    .fil0 {fill:none}
   ]]>
  </style>
 </defs>
 <g id="Camada_x0020_1">
  <metadata id="CorelCorpID_0Corel-Layer"/>
  <g id="_3023837650112">
   <g id="salaDoEmpreendedor">
    <g id="Group_22" data-name="Group 22">
     <g id="Group_482" data-name="Group 482">
      <g id="Group_481" data-name="Group 481">
       <path id="Path_843" class="fil0 str0" d="M1.5 3.67l-0.15 0.34 0.26 0.3c-0.01,0.07 -0.02,0.14 -0.02,0.22 0,0.02 0,0.03 0,0.05 0,0 0,0.01 0,0.01 0,0.06 0,0.13 0.01,0.19l-0.27 0.29 0.13 0.35 0.39 0.03c0.04,0.06 0.09,0.12 0.14,0.18 0.01,0.01 0.02,0.02 0.03,0.03 0.05,0.05 0.09,0.09 0.15,0.13l0.01 0.38 0.33 0.15 0.28 -0.24c0.08,0.02 0.16,0.03 0.24,0.03 0.02,0 0.03,0 0.05,0 0.01,0 0.01,0 0.02,0 0.07,0 0.13,-0 0.2,-0.01l0.26 0.25 0.34 -0.13 0.02 -0.35c0.07,-0.05 0.14,-0.1 0.2,-0.15 0.01,-0.01 0.02,-0.02 0.03,-0.03 0.06,-0.06 0.11,-0.12 0.16,-0.18l0.35 -0.01 0.15 -0.34 -0.23 -0.26c0.02,-0.08 0.03,-0.16 0.03,-0.24 0,-0.02 0,-0.03 0,-0.05 0,-0.01 0,-0.01 0,-0.02 0,-0.08 -0.01,-0.16 -0.02,-0.23l0.24 -0.25 -0.13 -0.35 -0.36 -0.03c-0.04,-0.06 -0.09,-0.12 -0.14,-0.17 -0.01,-0.01 -0.02,-0.02 -0.03,-0.03 -0.06,-0.06 -0.12,-0.12 -0.19,-0.17l-0.01 -0.37 -0.33 -0.15 -0.28 0.25c-0.07,-0.01 -0.14,-0.02 -0.2,-0.02l-0.05 0c-0,0 -0.01,0 -0.01,0 -0.07,0 -0.14,0.01 -0.21,0.02l-0.28 -0.27 -0.34 0.13 -0.03 0.4c-0.05,0.04 -0.1,0.08 -0.15,0.12 -0.01,0.01 -0.02,0.02 -0.03,0.03 -0.05,0.05 -0.1,0.11 -0.14,0.16l-0.39 0.01zm2.28 1.24c-0.04,0.09 -0.09,0.17 -0.16,0.24l-0.02 0.02c-0.14,0.13 -0.32,0.2 -0.52,0.2 -0,0 -0.01,0 -0.01,0l-0.02 0c-0.1,-0 -0.19,-0.03 -0.28,-0.07 -0.09,-0.04 -0.17,-0.1 -0.23,-0.17l-0.02 -0.02c-0.13,-0.14 -0.2,-0.33 -0.2,-0.52 0,-0 0,-0.01 0,-0.01 0,-0.01 0,-0.02 0,-0.02 0,-0.1 0.03,-0.19 0.07,-0.28 0.04,-0.09 0.09,-0.17 0.16,-0.24 0.01,-0.01 0.01,-0.01 0.02,-0.02 0.14,-0.13 0.33,-0.2 0.52,-0.2 0,0 0.01,0 0.01,0l0.02 0c0.19,0.01 0.38,0.09 0.51,0.23l0.02 0.02c0.13,0.14 0.2,0.33 0.2,0.52 0,0 -0,0.01 -0,0.01 0,0.01 0,0.02 0,0.02 -0,0.1 -0.03,0.19 -0.07,0.28" data-name="Path 843"/>
      </g>
     </g>
     <line id="Line_227" class="fil0 str0" x1="7.58" y1="8.09" x2="7.58" y2= "3.5"  data-name="Line 227"/>
     <line id="Line_228" class="fil0 str0" x1="7.58" y1="2.55" x2="7.58" y2= "1.76"  data-name="Line 228"/>
     <line id="Line_229" class="fil0 str0" x1="9.72" y1="8.06" x2="9.72" y2= "4.27"  data-name="Line 229"/>
     <line id="Line_230" class="fil0 str0" x1="9.72" y1="2.92" x2="9.72" y2= "2.14"  data-name="Line 230"/>
     <line id="Line_231" class="fil0 str0" x1="11.91" y1="4.59" x2="11.91" y2= "3.55"  data-name="Line 231"/>
     <line id="Line_232" class="fil0 str0" x1="11.91" y1="2.55" x2="11.91" y2= "1.76"  data-name="Line 232"/>
     <g id="Group_483" data-name="Group 483">
      <path id="Path_844" class="fil0 str0" d="M15.81 9.84l-0.09 0.03 0 0.85 -0.18 0 0 0.33 -0.35 -0 0 -0.31 -0.22 0 -0 -0.87 -0.07 -0.02c-0.63,-0.2 -1.06,-0.78 -1.06,-1.44 0,-0.83 0.67,-1.51 1.51,-1.51 0.83,0 1.51,0.67 1.51,1.51 0,0.65 -0.42,1.23 -1.04,1.43l0 0z" data-name="Path 844"/>
      <path id="Path_845" class="fil0 str0" d="M15.37 7.61c-0.42,0 -0.75,0.34 -0.75,0.76 0,0 0,0 0,0.01" data-name="Path 845"/>
      <line id="Line_233" class="fil0 str0" x1="15.31" y1="6.05" x2="15.31" y2= "6.52"  data-name="Line 233"/>
      <line id="Line_234" class="fil0 str0" x1="17.71" y1="8.35" x2="17.23" y2= "8.35"  data-name="Line 234"/>
      <line id="Line_235" class="fil0 str0" x1="16.96" y1="6.67" x2="16.63" y2= "7.01"  data-name="Line 235"/>
      <line id="Line_236" class="fil0 str0" x1="17.05" y1="10.02" x2="16.72" y2= "9.68"  data-name="Line 236"/>
      <line id="Line_237" class="fil0 str0" x1="13.01" y1="8.33" x2="13.48" y2= "8.33"  data-name="Line 237"/>
      <line id="Line_238" class="fil0 str0" x1="13.75" y1="10.02" x2="14.09" y2= "9.68"  data-name="Line 238"/>
      <line id="Line_239" class="fil0 str0" x1="13.66" y1="6.67" x2="14" y2= "7.01"  data-name="Line 239"/>
     </g>
     <polygon id="Path_846" class="fil0 str0" points="6.13,7.27 3.09,7.27 1.32,9.11 1.29,7.27 0.3,7.27 0.3,2.09 6.13,2.09 " data-name="Path 846"/>
     <polygon id="Path_847" class="fil0 str0" points="19.81,11.79 14.11,11.79 12.35,13.64 12.32,11.79 11.33,11.79 11.33,5.12 19.81,5.12 " data-name="Path 847"/>
     <polyline id="Path_848" class="fil0 str0" points="4.13,1.45 4.13,0.3 16.02,0.3 16.02,4.88 " data-name="Path 848"/>
     <polyline id="Path_849" class="fil0 str0" points="10.86,9.91 8.09,9.91 6.32,11.76 6.29,9.91 4.13,9.91 4.13,7.61 " data-name="Path 849"/>
    </g>
   </g>
  </g>
 </g>
</svg>
