<?xml version="1.0" encoding="UTF-8"?>
<!DOCTYPE svg PUBLIC "-//W3C//DTD SVG 1.0//EN" "http://www.w3.org/TR/2001/REC-SVG-20010904/DTD/svg10.dtd">
<!-- Creator: CorelDRAW -->
<svg xmlns="http://www.w3.org/2000/svg" xml:space="preserve" width="14.1331mm" height="13.4263mm" version="1.0" style="shape-rendering:geometricPrecision; text-rendering:geometricPrecision; image-rendering:optimizeQuality; fill-rule:evenodd; clip-rule:evenodd"
viewBox="0 0 15.28 14.52"
 xmlns:xlink="http://www.w3.org/1999/xlink"
 xmlns:xodm="http://www.corel.com/coreldraw/odm/2003">
 <defs>
  <style type="text/css">
   <![CDATA[
    .fil0 {fill:#355070}
   ]]>
  </style>
 </defs>
 <g id="Camada_x0020_1">
  <metadata id="CorelCorpID_0Corel-Layer"/>
  <g id="_3059207461472">
   <g id="health-svgrepo-com.svg">
    <g id="Page-1">
     <g id="add">
      <path id="Combined-Shape" class="fil0" d="M13.09 8.41c-0.92,1.49 -2.27,3.11 -4.07,4.83l-0.54 0.51c-0.09,0.09 -0.18,0.17 -0.28,0.26l-0.57 0.52c-0.29,-0.26 -0.58,-0.52 -0.85,-0.77l-0.54 -0.51c-1.8,-1.73 -3.15,-3.34 -4.07,-4.83l1.83 0c0.81,1.15 1.91,2.4 3.3,3.74l0.32 0.3 0.05 -0.05c1.52,-1.44 2.71,-2.77 3.57,-3.99l1.83 0 0 0zm-7.74 -6.29l2.29 4.58 1.15 -2.29 0.85 1.71 5.64 0 0 1.53 -6.41 0 -1.24 2.47 -2.29 -4.59 -1.06 2.11 -4.29 0 0 -1.53 3.35 0 2 -4 -0 0zm5.04 -2.11c2.28,0 4.13,1.85 4.13,4.13 0,0.4 -0.04,0.8 -0.13,1.22l-1.57 0c0.1,-0.37 0.16,-0.73 0.17,-1.07l0 -0.15c0,-1.43 -1.16,-2.6 -2.6,-2.6 -0.59,0 -1.15,0.2 -1.6,0.55l-0.13 0.11 -1.02 0.91 -1.02 -0.91c-0.47,-0.42 -1.08,-0.66 -1.73,-0.66 -1.44,0 -2.6,1.16 -2.6,2.6 0,0.38 0.06,0.79 0.17,1.22l-1.57 0c-0.09,-0.42 -0.13,-0.83 -0.13,-1.22 0,-2.28 1.85,-4.13 4.13,-4.13 1.06,0 2.02,0.4 2.75,1.05 0.73,-0.65 1.69,-1.05 2.75,-1.05l-0 -0z"/>
     </g>
    </g>
   </g>
  </g>
 </g>
</svg>
