<?xml version="1.0" encoding="UTF-8"?>
<!DOCTYPE svg PUBLIC "-//W3C//DTD SVG 1.0//EN" "http://www.w3.org/TR/2001/REC-SVG-20010904/DTD/svg10.dtd">
<!-- Creator: CorelDRAW -->
<svg xmlns="http://www.w3.org/2000/svg" xml:space="preserve" width="10.3257mm" height="10.4126mm" version="1.0" style="shape-rendering:geometricPrecision; text-rendering:geometricPrecision; image-rendering:optimizeQuality; fill-rule:evenodd; clip-rule:evenodd"
viewBox="0 0 8.83 8.9"
 xmlns:xlink="http://www.w3.org/1999/xlink"
 xmlns:xodm="http://www.corel.com/coreldraw/odm/2003">
 <defs>
  <style type="text/css">
   <![CDATA[
    .str0 {stroke:#355070;stroke-width:0.34;stroke-linecap:round;stroke-miterlimit:22.9256}
    .fil0 {fill:none}
   ]]>
  </style>
 </defs>
 <g id="Camada_x0020_1">
  <metadata id="CorelCorpID_0Corel-Layer"/>
  <g id="_3060403519888">
   <path id="Path_675" class="fil0 str0" d="M6.34 6.34l0 0.2c0.13,0 0.25,0.04 0.36,0.1" data-name="Path 675"/>
   <path id="Path_676" class="fil0 str0" d="M6.34 6.54c-0.1,0 -0.2,0.03 -0.28,0.09 -0.07,0.05 -0.1,0.13 -0.1,0.21 0,0 0,0 0,0 -0,0 -0,0.01 -0,0.01 0,0.06 0.02,0.12 0.06,0.17 0.04,0.05 0.08,0.08 0.13,0.11 0.07,0.03 0.14,0.06 0.21,0.08l0.03 0.01c0.07,0.02 0.15,0.04 0.22,0.08 0.05,0.02 0.1,0.06 0.14,0.11 0.04,0.05 0.06,0.11 0.06,0.17 0,0.01 -0,0.01 -0,0.02 0,0 0,0.01 0,0.01 0,0.09 -0.04,0.17 -0.11,0.22 -0.08,0.07 -0.19,0.1 -0.29,0.1l0 0.23" data-name="Path 676"/>
   <path id="Path_677" class="fil0 str0" d="M6.41 7.93c-0.08,-0 -0.17,-0.02 -0.24,-0.05 -0.08,-0.03 -0.15,-0.08 -0.21,-0.14" data-name="Path 677"/>
   <path id="Path_751" class="fil0 str0" d="M1.81 8c0.01,0.24 -0.01,0.6 -0.16,0.73" data-name="Path 751"/>
   <path id="Path_752" class="fil0 str0" d="M3.71 5.23l-1.1 -2.18 -0.19 0.22 -1.28 0.47c-0.24,0.15 -0.39,0.41 -0.39,0.69 -0.06,0.54 -0.57,2.47 -0.57,2.47 0,0 -0.13,0.31 0.33,0.4 0.46,0.09 2.97,0.88 2.97,0.88l0.37 -0.67 -2.4 -0.89c-0.03,-0.18 0.03,-0.94 0.08,-0.91 0.09,0.06 0.12,0.49 0.12,0.76" data-name="Path 752"/>
   <path id="Path_753" class="fil0 str0" d="M6.17 5.68l-0.07 0 -0.65 -1.31c-0.1,-0.21 -0.27,-0.38 -0.49,-0.47 -0.41,-0.2 -1.36,-0.66 -1.36,-0.66l-0.03 1.5" data-name="Path 753"/>
   <polyline id="Path_754" class="fil0 str0" points="1.3,8.73 8.31,8.73 8.64,5.69 4.49,5.69 4.1,8.41 " data-name="Path 754"/>
   <path id="Path_757" class="fil0 str0" d="M2.5 2.03c0,0 0.07,-0.85 0.37,-0.34l0.19 0.03c0,0 -0.14,-0.48 0.21,-0.46 0.25,0.02 0.49,0.05 0.73,0.11 0.24,0.06 0.38,0.14 0.34,-0.34 -0.04,-0.48 -0.49,-1.19 -1.53,-0.69 0,0 -0.43,-0.08 -0.46,0.32 0.01,0.46 0.06,0.92 0.15,1.37l0 0z" data-name="Path 757"/>
   <path id="Path_758" class="fil0 str0" d="M2.65 3.01c0.05,-0.12 0.09,-0.24 0.12,-0.37" data-name="Path 758"/>
   <path id="Path_759" class="fil0 str0" d="M2.53 2.14c0,0 0.24,0.97 1.17,0.79 0,0 0.52,-0.14 0.52,-1.51" data-name="Path 759"/>
   <path id="Path_760" class="fil0 str0" d="M3.56 8.11c0.08,0.04 0.16,0.08 0.22,0.14 0.07,0.05 0.16,0.08 0.25,0.09" data-name="Path 760"/>
   <path id="Path_761" class="fil0 str0" d="M3.92 7.53c0.04,0.01 0.08,0.01 0.12,0.01 0.04,0 0.08,-0 0.12,-0.01" data-name="Path 761"/>
  </g>
 </g>
</svg>
