<?xml version="1.0" encoding="UTF-8"?>
<!DOCTYPE svg PUBLIC "-//W3C//DTD SVG 1.0//EN" "http://www.w3.org/TR/2001/REC-SVG-20010904/DTD/svg10.dtd">
<!-- Creator: CorelDRAW -->
<svg xmlns="http://www.w3.org/2000/svg" xml:space="preserve" width="15.1654mm" height="9.7518mm" version="1.0" style="shape-rendering:geometricPrecision; text-rendering:geometricPrecision; image-rendering:optimizeQuality; fill-rule:evenodd; clip-rule:evenodd"
viewBox="0 0 23.34 15.01"
 xmlns:xlink="http://www.w3.org/1999/xlink"
 xmlns:xodm="http://www.corel.com/coreldraw/odm/2003">
 <defs>
  <style type="text/css">
   <![CDATA[
    .str0 {stroke:#355070;stroke-width:0.81;stroke-linecap:round;stroke-linejoin:round;stroke-miterlimit:22.9256}
    .fil0 {fill:none}
   ]]>
  </style>
 </defs>
 <g id="Camada_x0020_1">
  <metadata id="CorelCorpID_0Corel-Layer"/>
  <polyline id="Path_942" class="fil0 str0" points="22.93,14.6 22.93,0.41 13.94,0.41 13.94,6.98 " data-name="Path 942"/>
  <polyline id="Path_943" class="fil0 str0" points="17.94,9.56 11.75,6.04 8.91,7.69 " data-name="Path 943"/>
  <polyline id="Path_944" class="fil0 str0" points="11.27,9.11 7.76,7.16 0.41,11.22 2.77,11.22 2.77,14.51 " data-name="Path 944"/>
  <polyline id="Path_945" class="fil0 str0" points="4.62,14.07 4.62,11.29 6.63,11.29 6.63,14.03 " data-name="Path 945"/>
  <polyline id="Path_946" class="fil0 str0" points="11.8,14.07 11.8,11.25 13.83,11.25 13.83,14.03 " data-name="Path 946"/>
  <rect id="Rectangle_1504" class="fil0 str0" x="7.75" y="11.25" width="1.93" height="1.93" data-name="Rectangle 1504"/>
  <rect id="Rectangle_1505" class="fil0 str0" x="19.33" y="10.5" width="2.45" height="2.45" data-name="Rectangle 1505"/>
  <rect id="Rectangle_1506" class="fil0 str0" x="19.33" y="6.33" width="2.45" height="2.45" data-name="Rectangle 1506"/>
  <rect id="Rectangle_1507" class="fil0 str0" x="19.33" y="2.14" width="2.45" height="2.45" data-name="Rectangle 1507"/>
  <path id="Rectangle_1508" class="fil0 str0" d="M15.18 6.33l2.45 0 0 2.45 -0.41 0c-1.12,0 -2.04,-0.91 -2.04,-2.04l-0 -0.41z" data-name="Rectangle 1508"/>
  <rect id="Rectangle_1509" class="fil0 str0" x="15.18" y="2.14" width="2.45" height="2.45" data-name="Rectangle 1509"/>
  <path id="Path_947" class="fil0 str0" d="M2.83 8.36c-0.48,-3.43 1.74,-6.65 5.11,-7.43 1.72,-0.4 3.54,-0.09 5.04,0.84" data-name="Path 947"/>
 </g>
</svg>
