<?xml version="1.0" encoding="UTF-8"?>
<!DOCTYPE svg PUBLIC "-//W3C//DTD SVG 1.0//EN" "http://www.w3.org/TR/2001/REC-SVG-20010904/DTD/svg10.dtd">
<!-- Creator: CorelDRAW -->
<svg xmlns="http://www.w3.org/2000/svg" xml:space="preserve" width="10.4498mm" height="7.2506mm" version="1.0" style="shape-rendering:geometricPrecision; text-rendering:geometricPrecision; image-rendering:optimizeQuality; fill-rule:evenodd; clip-rule:evenodd"
viewBox="0 0 10.57 7.33"
 xmlns:xlink="http://www.w3.org/1999/xlink"
 xmlns:xodm="http://www.corel.com/coreldraw/odm/2003">
 <defs>
  <style type="text/css">
   <![CDATA[
    .str0 {stroke:#355070;stroke-width:0.4;stroke-linecap:round;stroke-miterlimit:22.9256}
    .fil0 {fill:none}
   ]]>
  </style>
 </defs>
 <g id="Camada_x0020_1">
  <metadata id="CorelCorpID_0Corel-Layer"/>
  <g id="_3063007168864">
   <g id="webmail">
    <path id="Path_7" class="fil0 str0" d="M10.35 0.7c-0.01,-0.28 -0.24,-0.5 -0.52,-0.5 -0.01,0 -0.01,0 -0.02,0l-0.02 0 -0 -0 -0.92 0c-0,-0 -0.01,-0 -0.01,-0 -0.27,0 -0.51,0.18 -0.58,0.43l-0.03 0 -1.18 3.72c0,0 -0.29,0.76 -0.91,0.87l-0.16 0 1.35 -4.25c0.04,-0.07 0.07,-0.16 0.07,-0.24 -0.01,-0.28 -0.24,-0.5 -0.52,-0.5 -0.01,0 -0.01,0 -0.02,0l-0.02 0 0 -0 -0.93 0c-0,-0 -0.01,-0 -0.01,-0 -0.29,0 -0.54,0.2 -0.59,0.48l-0.01 0 -1.49 4.52 -0.8 0 1.35 -4.31c0.04,-0.07 0.07,-0.15 0.07,-0.24 -0.01,-0.28 -0.24,-0.5 -0.52,-0.5 -0.01,0 -0.01,0 -0.02,0l-0.02 0 -0 -0 -0.92 0c-0,-0 -0.01,-0 -0.01,-0 -0.28,0 -0.52,0.19 -0.59,0.45l-0.02 0 -2.03 6.47 5.94 0c0,0 2.04,0.1 2.79,-2.24l1.28 -3.95c0.04,-0.07 0.07,-0.16 0.07,-0.24l0 0z" data-name="Path 7"/>
   </g>
  </g>
 </g>
</svg>
